<?xml version="1.0" encoding="utf-8"?>
<!-- Generator: Adobe Illustrator 25.2.0, SVG Export Plug-In . SVG Version: 6.00 Build 0)  -->
<svg version="1.1" id="Layer_1" xmlns="http://www.w3.org/2000/svg" xmlns:xlink="http://www.w3.org/1999/xlink" x="0px" y="0px"
	 viewBox="0 0 55 55" style="enable-background:new 0 0 55 55;" xml:space="preserve">
<style type="text/css">
	.st0{fill:url(#SVGID_1_);}
	.st1{fill:url(#SVGID_2_);}
	.st2{fill:url(#SVGID_3_);}
	.st3{fill:url(#SVGID_4_);}
	.st4{fill:url(#SVGID_5_);}
	.st5{fill:url(#SVGID_6_);}
	.st6{fill:url(#SVGID_7_);}
	.st7{fill:url(#SVGID_8_);}
	.st8{fill:url(#SVGID_9_);}
	.st9{fill:url(#SVGID_10_);}
	.st10{fill:url(#SVGID_11_);}
	.st11{fill:url(#SVGID_12_);}
	.st12{fill:url(#SVGID_13_);}
	.st13{fill:url(#SVGID_14_);}
	.st14{fill:url(#SVGID_15_);}
	.st15{fill:url(#SVGID_16_);}
	.st16{fill:url(#SVGID_17_);}
	.st17{fill:url(#SVGID_18_);}
	.st18{fill:url(#SVGID_19_);}
	.st19{fill:url(#SVGID_20_);}
	.st20{fill:url(#SVGID_21_);}
	.st21{fill:url(#SVGID_22_);}
	.st22{fill:url(#SVGID_23_);}
	.st23{fill:url(#SVGID_24_);}
	.st24{fill:url(#SVGID_25_);}
	.st25{fill:url(#SVGID_26_);}
	.st26{fill:url(#SVGID_27_);}
	.st27{fill:url(#SVGID_28_);}
	.st28{fill:url(#SVGID_29_);}
	.st29{fill:url(#SVGID_30_);}
	.st30{fill:url(#SVGID_31_);}
	.st31{fill:url(#SVGID_32_);}
	.st32{fill:url(#SVGID_33_);}
	.st33{fill:url(#SVGID_34_);}
	.st34{fill:url(#SVGID_35_);}
	.st35{fill:url(#SVGID_36_);}
	.st36{fill:url(#SVGID_37_);}
	.st37{fill:url(#SVGID_38_);}
	.st38{fill:url(#SVGID_39_);}
	.st39{fill:url(#SVGID_40_);}
	.st40{fill:url(#SVGID_41_);}
	.st41{fill:url(#SVGID_42_);}
	.st42{fill:url(#SVGID_43_);}
	.st43{fill:url(#SVGID_44_);}
	.st44{fill:url(#SVGID_45_);}
	.st45{fill:url(#SVGID_46_);}
</style>
<g>
	<g>
		<g>
			
				<linearGradient id="SVGID_1_" gradientUnits="userSpaceOnUse" x1="41.5848" y1="47.5152" x2="13.5847" y2="7.7257" gradientTransform="matrix(1 0 0 -1 0 55)">
				<stop  offset="0" style="stop-color:#B2782A"/>
				<stop  offset="5.761914e-02" style="stop-color:#B77F2E"/>
				<stop  offset="0.1404" style="stop-color:#C49239"/>
				<stop  offset="0.2379" style="stop-color:#DAB14C"/>
				<stop  offset="0.3333" style="stop-color:#F4D662"/>
				<stop  offset="0.5161" style="stop-color:#F4DE8B"/>
				<stop  offset="0.6613" style="stop-color:#F4D662"/>
				<stop  offset="1" style="stop-color:#B2782A"/>
			</linearGradient>
			<path class="st0" d="M4.7,29.9c0.6-1.3,0.6-3.4,0-4.8C4.1,23.8,4.5,22,5.5,21c1.1-1,1.9-2.9,1.8-4.4c-0.1-1.4,1-3,2.3-3.5
				c1.4-0.5,2.9-2,3.4-3.4s2.1-2.4,3.5-2.3C18,7.4,20,6.6,21,5.5s2.8-1.4,4.1-0.8c1.3,0.6,3.4,0.6,4.8,0c1.3-0.6,3.2-0.2,4.1,0.8
				c1,1.1,3,1.9,4.4,1.8s3,1,3.5,2.3c0.5,1.4,2,2.9,3.4,3.4s2.4,2.1,2.3,3.5c0,1.5,0.8,3.5,1.9,4.5s1.4,2.8,0.8,4.1
				c-0.6,1.3-0.6,3.4,0,4.8c0.6,1.3,0.2,3.2-0.8,4.1c-1.1,1-1.9,2.9-1.8,4.4c0.1,1.4-1,3-2.3,3.5c-1.4,0.5-2.9,2-3.4,3.4
				s-2.1,2.4-3.5,2.3c-1.5,0-3.5,0.8-4.5,1.9s-2.8,1.4-4.1,0.8c-1.3-0.6-3.4-0.6-4.8,0c-1.3,0.6-3.2,0.2-4.1-0.8
				c-1-1.1-2.9-1.9-4.4-1.8c-1.4,0.1-3-1-3.5-2.3c-0.5-1.4-2-2.9-3.4-3.4s-2.4-2.1-2.3-3.5C7.4,37,6.6,35,5.5,34
				C4.5,33.1,4.1,31.2,4.7,29.9z"/>
			
				<linearGradient id="SVGID_2_" gradientUnits="userSpaceOnUse" x1="12.4769" y1="44.3139" x2="42.2497" y2="10.992" gradientTransform="matrix(1 0 0 -1 0 55)">
				<stop  offset="0" style="stop-color:#B2782A"/>
				<stop  offset="5.761914e-02" style="stop-color:#B77F2E"/>
				<stop  offset="0.1404" style="stop-color:#C49239"/>
				<stop  offset="0.2379" style="stop-color:#DAB14C"/>
				<stop  offset="0.3333" style="stop-color:#F4D662"/>
				<stop  offset="0.5161" style="stop-color:#F4DE8B"/>
				<stop  offset="0.6613" style="stop-color:#F4D662"/>
				<stop  offset="1" style="stop-color:#B2782A"/>
			</linearGradient>
			<path class="st1" d="M47.8,27.5c0,11.2-9.1,20.3-20.3,20.3S7.2,38.7,7.2,27.5S16.3,7.2,27.5,7.2S47.8,16.3,47.8,27.5z"/>
			
				<linearGradient id="SVGID_3_" gradientUnits="userSpaceOnUse" x1="42.3078" y1="42.3078" x2="25.9953" y2="25.9953" gradientTransform="matrix(1 0 0 -1 0 55)">
				<stop  offset="0" style="stop-color:#48484D"/>
				<stop  offset="0.2096" style="stop-color:#404045"/>
				<stop  offset="0.5336" style="stop-color:#2A2A2F"/>
				<stop  offset="0.9296" style="stop-color:#07070C"/>
				<stop  offset="1" style="stop-color:#000005"/>
			</linearGradient>
			<path class="st2" d="M45.5,27.5c0,9.9-8,18-18,18c-9.9,0-18-8-18-18c0-9.9,8-18,18-18C37.4,9.5,45.5,17.6,45.5,27.5z"/>
			
				<linearGradient id="SVGID_4_" gradientUnits="userSpaceOnUse" x1="8.5" y1="27.5" x2="46.5" y2="27.5" gradientTransform="matrix(1 0 0 -1 0 55)">
				<stop  offset="0" style="stop-color:#B2782A"/>
				<stop  offset="5.761914e-02" style="stop-color:#B77F2E"/>
				<stop  offset="0.1404" style="stop-color:#C49239"/>
				<stop  offset="0.2379" style="stop-color:#DAB14C"/>
				<stop  offset="0.3333" style="stop-color:#F4D662"/>
				<stop  offset="0.5161" style="stop-color:#F4DE8B"/>
				<stop  offset="0.6613" style="stop-color:#F4D662"/>
				<stop  offset="1" style="stop-color:#B2782A"/>
			</linearGradient>
			<path class="st3" d="M27.5,8.9c10.3,0,18.6,8.4,18.6,18.6c0,10.3-8.3,18.6-18.6,18.6S8.9,37.7,8.9,27.5
				C8.9,17.2,17.2,8.9,27.5,8.9 M27.5,8.5c-10.5,0-19,8.5-19,19s8.5,19,19,19s19-8.5,19-19S38,8.5,27.5,8.5L27.5,8.5z"/>
		</g>
		<g>
			<g>
				<g>
					
						<linearGradient id="SVGID_5_" gradientUnits="userSpaceOnUse" x1="20.1475" y1="18.1" x2="23.1487" y2="18.1" gradientTransform="matrix(1 0 0 -1 0 55)">
						<stop  offset="0" style="stop-color:#B2782A"/>
						<stop  offset="5.761914e-02" style="stop-color:#B77F2E"/>
						<stop  offset="0.1404" style="stop-color:#C49239"/>
						<stop  offset="0.2379" style="stop-color:#DAB14C"/>
						<stop  offset="0.3333" style="stop-color:#F4D662"/>
						<stop  offset="0.5161" style="stop-color:#F4DE8B"/>
						<stop  offset="0.6613" style="stop-color:#F4D662"/>
						<stop  offset="1" style="stop-color:#B2782A"/>
					</linearGradient>
					<path class="st4" d="M22.8,36.9c0.8,1.4,0.2,2.6,0.2,2.6s-1.3-0.1-2.1-1.6c-0.8-1.4-0.7-3.6-0.7-3.6S22,35.5,22.8,36.9z"/>
					
						<linearGradient id="SVGID_6_" gradientUnits="userSpaceOnUse" x1="17" y1="15.5" x2="22.9182" y2="15.5" gradientTransform="matrix(1 0 0 -1 0 55)">
						<stop  offset="0" style="stop-color:#B2782A"/>
						<stop  offset="5.761914e-02" style="stop-color:#B77F2E"/>
						<stop  offset="0.1404" style="stop-color:#C49239"/>
						<stop  offset="0.2379" style="stop-color:#DAB14C"/>
						<stop  offset="0.3333" style="stop-color:#F4D662"/>
						<stop  offset="0.5161" style="stop-color:#F4DE8B"/>
						<stop  offset="0.6613" style="stop-color:#F4D662"/>
						<stop  offset="1" style="stop-color:#B2782A"/>
					</linearGradient>
					<path class="st5" d="M20.5,40.6c1.6,0,2.4-1.1,2.4-1.1s-0.7-1.1-2.4-1.1c-1.6,0-3.5,1.1-3.5,1.1S18.9,40.6,20.5,40.6z"/>
				</g>
				<g>
					
						<linearGradient id="SVGID_7_" gradientUnits="userSpaceOnUse" x1="17.5299" y1="20.05" x2="19.656" y2="20.05" gradientTransform="matrix(1 0 0 -1 0 55)">
						<stop  offset="0" style="stop-color:#B2782A"/>
						<stop  offset="5.761914e-02" style="stop-color:#B77F2E"/>
						<stop  offset="0.1404" style="stop-color:#C49239"/>
						<stop  offset="0.2379" style="stop-color:#DAB14C"/>
						<stop  offset="0.3333" style="stop-color:#F4D662"/>
						<stop  offset="0.5161" style="stop-color:#F4DE8B"/>
						<stop  offset="0.6613" style="stop-color:#F4D662"/>
						<stop  offset="1" style="stop-color:#B2782A"/>
					</linearGradient>
					<path class="st6" d="M19.5,35.2c0.4,1.4-0.3,2.3-0.3,2.3s-1.1-0.4-1.5-1.8c-0.4-1.4,0-3.3,0-3.3S19.1,33.8,19.5,35.2z"/>
					
						<linearGradient id="SVGID_8_" gradientUnits="userSpaceOnUse" x1="14.0622" y1="17.9583" x2="19.2069" y2="17.9583" gradientTransform="matrix(1 0 0 -1 0 55)">
						<stop  offset="0" style="stop-color:#B2782A"/>
						<stop  offset="5.761914e-02" style="stop-color:#B77F2E"/>
						<stop  offset="0.1404" style="stop-color:#C49239"/>
						<stop  offset="0.2379" style="stop-color:#DAB14C"/>
						<stop  offset="0.3333" style="stop-color:#F4D662"/>
						<stop  offset="0.5161" style="stop-color:#F4DE8B"/>
						<stop  offset="0.6613" style="stop-color:#F4D662"/>
						<stop  offset="1" style="stop-color:#B2782A"/>
					</linearGradient>
					<path class="st7" d="M16.9,38c1.4,0.3,2.3-0.5,2.3-0.5s-0.4-1.1-1.9-1.4c-1.4-0.3-3.3,0.3-3.3,0.3S15.5,37.7,16.9,38z"/>
				</g>
				<g>
					
						<linearGradient id="SVGID_9_" gradientUnits="userSpaceOnUse" x1="15.6029" y1="22.7" x2="17.2729" y2="22.7" gradientTransform="matrix(1 0 0 -1 0 55)">
						<stop  offset="0" style="stop-color:#B2782A"/>
						<stop  offset="5.761914e-02" style="stop-color:#B77F2E"/>
						<stop  offset="0.1404" style="stop-color:#C49239"/>
						<stop  offset="0.2379" style="stop-color:#DAB14C"/>
						<stop  offset="0.3333" style="stop-color:#F4D662"/>
						<stop  offset="0.5161" style="stop-color:#F4DE8B"/>
						<stop  offset="0.6613" style="stop-color:#F4D662"/>
						<stop  offset="1" style="stop-color:#B2782A"/>
					</linearGradient>
					<path class="st8" d="M17.3,32.7c0,1.3-0.8,1.9-0.8,1.9s-0.9-0.5-0.9-1.8s0.7-2.8,0.7-2.8S17.2,31.4,17.3,32.7z"/>
					
						<linearGradient id="SVGID_10_" gradientUnits="userSpaceOnUse" x1="12.3788" y1="21.3555" x2="16.5058" y2="21.3555" gradientTransform="matrix(1 0 0 -1 0 55)">
						<stop  offset="0" style="stop-color:#B2782A"/>
						<stop  offset="5.761914e-02" style="stop-color:#B77F2E"/>
						<stop  offset="0.1404" style="stop-color:#C49239"/>
						<stop  offset="0.2379" style="stop-color:#DAB14C"/>
						<stop  offset="0.3333" style="stop-color:#F4D662"/>
						<stop  offset="0.5161" style="stop-color:#F4DE8B"/>
						<stop  offset="0.6613" style="stop-color:#F4D662"/>
						<stop  offset="1" style="stop-color:#B2782A"/>
					</linearGradient>
					<path class="st9" d="M14.5,34.5c1.1,0.6,2,0.1,2,0.1s-0.2-1-1.3-1.6s-2.8-0.5-2.8-0.5S13.3,34,14.5,34.5z"/>
				</g>
				<g>
					
						<linearGradient id="SVGID_11_" gradientUnits="userSpaceOnUse" x1="14.5272" y1="26.05" x2="16.3721" y2="26.05" gradientTransform="matrix(1 0 0 -1 0 55)">
						<stop  offset="0" style="stop-color:#B2782A"/>
						<stop  offset="5.761914e-02" style="stop-color:#B77F2E"/>
						<stop  offset="0.1404" style="stop-color:#C49239"/>
						<stop  offset="0.2379" style="stop-color:#DAB14C"/>
						<stop  offset="0.3333" style="stop-color:#F4D662"/>
						<stop  offset="0.5161" style="stop-color:#F4DE8B"/>
						<stop  offset="0.6613" style="stop-color:#F4D662"/>
						<stop  offset="1" style="stop-color:#B2782A"/>
					</linearGradient>
					<path class="st10" d="M16.1,29.6c-0.4,1.1-1.3,1.4-1.3,1.4s-0.6-0.8-0.1-1.9c0.4-1.1,1.6-2.2,1.6-2.2S16.6,28.5,16.1,29.6z"/>
					
						<linearGradient id="SVGID_12_" gradientUnits="userSpaceOnUse" x1="11.9441" y1="25.5983" x2="14.8494" y2="25.5983" gradientTransform="matrix(1 0 0 -1 0 55)">
						<stop  offset="0" style="stop-color:#B2782A"/>
						<stop  offset="5.761914e-02" style="stop-color:#B77F2E"/>
						<stop  offset="0.1404" style="stop-color:#C49239"/>
						<stop  offset="0.2379" style="stop-color:#DAB14C"/>
						<stop  offset="0.3333" style="stop-color:#F4D662"/>
						<stop  offset="0.5161" style="stop-color:#F4DE8B"/>
						<stop  offset="0.6613" style="stop-color:#F4D662"/>
						<stop  offset="1" style="stop-color:#B2782A"/>
					</linearGradient>
					<path class="st11" d="M13.1,30.2c0.8,0.9,1.7,0.8,1.7,0.8s0.2-0.9-0.6-1.8s-2.3-1.4-2.3-1.4S12.3,29.3,13.1,30.2z"/>
				</g>
				<g>
					
						<linearGradient id="SVGID_13_" gradientUnits="userSpaceOnUse" x1="14.2243" y1="29.5" x2="16.6842" y2="29.5" gradientTransform="matrix(1 0 0 -1 0 55)">
						<stop  offset="0" style="stop-color:#B2782A"/>
						<stop  offset="5.761914e-02" style="stop-color:#B77F2E"/>
						<stop  offset="0.1404" style="stop-color:#C49239"/>
						<stop  offset="0.2379" style="stop-color:#DAB14C"/>
						<stop  offset="0.3333" style="stop-color:#F4D662"/>
						<stop  offset="0.5161" style="stop-color:#F4DE8B"/>
						<stop  offset="0.6613" style="stop-color:#F4D662"/>
						<stop  offset="1" style="stop-color:#B2782A"/>
					</linearGradient>
					<path class="st12" d="M15.9,26.3c-0.7,1-1.6,1-1.6,1s-0.4-0.9,0.3-1.9s2.1-1.7,2.1-1.7S16.6,25.3,15.9,26.3z"/>
					
						<linearGradient id="SVGID_14_" gradientUnits="userSpaceOnUse" x1="12.2603" y1="29.6" x2="14.4755" y2="29.6" gradientTransform="matrix(1 0 0 -1 0 55)">
						<stop  offset="0" style="stop-color:#B2782A"/>
						<stop  offset="5.761914e-02" style="stop-color:#B77F2E"/>
						<stop  offset="0.1404" style="stop-color:#C49239"/>
						<stop  offset="0.2379" style="stop-color:#DAB14C"/>
						<stop  offset="0.3333" style="stop-color:#F4D662"/>
						<stop  offset="0.5161" style="stop-color:#F4DE8B"/>
						<stop  offset="0.6613" style="stop-color:#F4D662"/>
						<stop  offset="1" style="stop-color:#B2782A"/>
					</linearGradient>
					<path class="st13" d="M12.8,26.2c0.6,1,1.5,1.1,1.5,1.1s0.4-0.8-0.1-1.9c-0.6-1-1.9-1.9-1.9-1.9S12.2,25.1,12.8,26.2z"/>
				</g>
				<g>
					
						<linearGradient id="SVGID_15_" gradientUnits="userSpaceOnUse" x1="14.8889" y1="32.518" x2="17.9922" y2="32.518" gradientTransform="matrix(1 0 0 -1 0 55)">
						<stop  offset="0" style="stop-color:#B2782A"/>
						<stop  offset="5.761914e-02" style="stop-color:#B77F2E"/>
						<stop  offset="0.1404" style="stop-color:#C49239"/>
						<stop  offset="0.2379" style="stop-color:#DAB14C"/>
						<stop  offset="0.3333" style="stop-color:#F4D662"/>
						<stop  offset="0.5161" style="stop-color:#F4DE8B"/>
						<stop  offset="0.6613" style="stop-color:#F4D662"/>
						<stop  offset="1" style="stop-color:#B2782A"/>
					</linearGradient>
					<path class="st14" d="M16.6,23.3c-0.9,0.7-1.7,0.4-1.7,0.4s-0.1-0.9,0.8-1.6c0.9-0.7,2.3-0.9,2.3-0.9S17.4,22.6,16.6,23.3z"/>
					
						<linearGradient id="SVGID_16_" gradientUnits="userSpaceOnUse" x1="13.8204" y1="33.25" x2="15.3405" y2="33.25" gradientTransform="matrix(1 0 0 -1 0 55)">
						<stop  offset="0" style="stop-color:#B2782A"/>
						<stop  offset="5.761914e-02" style="stop-color:#B77F2E"/>
						<stop  offset="0.1404" style="stop-color:#C49239"/>
						<stop  offset="0.2379" style="stop-color:#DAB14C"/>
						<stop  offset="0.3333" style="stop-color:#F4D662"/>
						<stop  offset="0.5161" style="stop-color:#F4DE8B"/>
						<stop  offset="0.6613" style="stop-color:#F4D662"/>
						<stop  offset="1" style="stop-color:#B2782A"/>
					</linearGradient>
					<path class="st15" d="M13.9,22.3c0.2,1.1,1,1.4,1,1.4s0.6-0.6,0.4-1.7c-0.2-1.1-1.2-2.2-1.2-2.2S13.7,21.2,13.9,22.3z"/>
				</g>
				<g>
					
						<linearGradient id="SVGID_17_" gradientUnits="userSpaceOnUse" x1="19.8824" y1="38.35" x2="22.4611" y2="38.35" gradientTransform="matrix(1 0 0 -1 0 55)">
						<stop  offset="0" style="stop-color:#B2782A"/>
						<stop  offset="5.761914e-02" style="stop-color:#B77F2E"/>
						<stop  offset="0.1404" style="stop-color:#C49239"/>
						<stop  offset="0.2379" style="stop-color:#DAB14C"/>
						<stop  offset="0.3333" style="stop-color:#F4D662"/>
						<stop  offset="0.5161" style="stop-color:#F4DE8B"/>
						<stop  offset="0.6613" style="stop-color:#F4D662"/>
						<stop  offset="1" style="stop-color:#B2782A"/>
					</linearGradient>
					<path class="st16" d="M20.9,17.1c-0.7,0-1.1-0.4-1.1-0.4s0.3-0.5,1-0.5s1.6,0.4,1.6,0.4S21.6,17.1,20.9,17.1z"/>
					
						<linearGradient id="SVGID_18_" gradientUnits="userSpaceOnUse" x1="19.7667" y1="39.45" x2="21.0159" y2="39.45" gradientTransform="matrix(1 0 0 -1 0 55)">
						<stop  offset="0" style="stop-color:#B2782A"/>
						<stop  offset="5.761914e-02" style="stop-color:#B77F2E"/>
						<stop  offset="0.1404" style="stop-color:#C49239"/>
						<stop  offset="0.2379" style="stop-color:#DAB14C"/>
						<stop  offset="0.3333" style="stop-color:#F4D662"/>
						<stop  offset="0.5161" style="stop-color:#F4DE8B"/>
						<stop  offset="0.6613" style="stop-color:#F4D662"/>
						<stop  offset="1" style="stop-color:#B2782A"/>
					</linearGradient>
					<path class="st17" d="M19.9,15.6c-0.3,0.6,0,1.1,0,1.1s0.6-0.1,0.9-0.7s0.3-1.6,0.3-1.6S20.2,14.9,19.9,15.6z"/>
				</g>
				<g>
					
						<linearGradient id="SVGID_19_" gradientUnits="userSpaceOnUse" x1="17.9966" y1="36.9076" x2="21.276" y2="36.9076" gradientTransform="matrix(1 0 0 -1 0 55)">
						<stop  offset="0" style="stop-color:#B2782A"/>
						<stop  offset="5.761914e-02" style="stop-color:#B77F2E"/>
						<stop  offset="0.1404" style="stop-color:#C49239"/>
						<stop  offset="0.2379" style="stop-color:#DAB14C"/>
						<stop  offset="0.3333" style="stop-color:#F4D662"/>
						<stop  offset="0.5161" style="stop-color:#F4DE8B"/>
						<stop  offset="0.6613" style="stop-color:#F4D662"/>
						<stop  offset="1" style="stop-color:#B2782A"/>
					</linearGradient>
					<path class="st18" d="M19.4,18.7c-0.9,0.2-1.4-0.4-1.4-0.4s0.3-0.7,1.2-0.8c0.9-0.2,2.1,0.2,2.1,0.2S20.3,18.5,19.4,18.7z"/>
					
						<linearGradient id="SVGID_20_" gradientUnits="userSpaceOnUse" x1="17.7351" y1="38.2" x2="19.1108" y2="38.2" gradientTransform="matrix(1 0 0 -1 0 55)">
						<stop  offset="0" style="stop-color:#B2782A"/>
						<stop  offset="5.761914e-02" style="stop-color:#B77F2E"/>
						<stop  offset="0.1404" style="stop-color:#C49239"/>
						<stop  offset="0.2379" style="stop-color:#DAB14C"/>
						<stop  offset="0.3333" style="stop-color:#F4D662"/>
						<stop  offset="0.5161" style="stop-color:#F4DE8B"/>
						<stop  offset="0.6613" style="stop-color:#F4D662"/>
						<stop  offset="1" style="stop-color:#B2782A"/>
					</linearGradient>
					<path class="st19" d="M17.8,16.9c-0.3,0.9,0.2,1.5,0.2,1.5s0.7-0.2,1-1.1s0-2.1,0-2.1S18.1,16,17.8,16.9z"/>
				</g>
				<g>
					
						<linearGradient id="SVGID_21_" gradientUnits="userSpaceOnUse" x1="16.0753" y1="34.8783" x2="19.3753" y2="34.8783" gradientTransform="matrix(1 0 0 -1 0 55)">
						<stop  offset="0" style="stop-color:#B2782A"/>
						<stop  offset="5.761914e-02" style="stop-color:#B77F2E"/>
						<stop  offset="0.1404" style="stop-color:#C49239"/>
						<stop  offset="0.2379" style="stop-color:#DAB14C"/>
						<stop  offset="0.3333" style="stop-color:#F4D662"/>
						<stop  offset="0.5161" style="stop-color:#F4DE8B"/>
						<stop  offset="0.6613" style="stop-color:#F4D662"/>
						<stop  offset="1" style="stop-color:#B2782A"/>
					</linearGradient>
					<path class="st20" d="M17.7,20.8c-0.9,0.5-1.6,0.1-1.6,0.1s0.1-0.8,1-1.3s2.3-0.4,2.3-0.4S18.6,20.4,17.7,20.8z"/>
					
						<linearGradient id="SVGID_22_" gradientUnits="userSpaceOnUse" x1="15.4212" y1="35.95" x2="16.7713" y2="35.95" gradientTransform="matrix(1 0 0 -1 0 55)">
						<stop  offset="0" style="stop-color:#B2782A"/>
						<stop  offset="5.761914e-02" style="stop-color:#B77F2E"/>
						<stop  offset="0.1404" style="stop-color:#C49239"/>
						<stop  offset="0.2379" style="stop-color:#DAB14C"/>
						<stop  offset="0.3333" style="stop-color:#F4D662"/>
						<stop  offset="0.5161" style="stop-color:#F4DE8B"/>
						<stop  offset="0.6613" style="stop-color:#F4D662"/>
						<stop  offset="1" style="stop-color:#B2782A"/>
					</linearGradient>
					<path class="st21" d="M15.4,19.4c0,1,0.7,1.5,0.7,1.5s0.7-0.5,0.7-1.5s-0.6-2.2-0.6-2.2S15.4,18.4,15.4,19.4z"/>
				</g>
				
					<linearGradient id="SVGID_23_" gradientUnits="userSpaceOnUse" x1="21.5189" y1="39.5601" x2="23.9666" y2="39.5601" gradientTransform="matrix(1 0 0 -1 0 55)">
					<stop  offset="0" style="stop-color:#B2782A"/>
					<stop  offset="5.761914e-02" style="stop-color:#B77F2E"/>
					<stop  offset="0.1404" style="stop-color:#C49239"/>
					<stop  offset="0.2379" style="stop-color:#DAB14C"/>
					<stop  offset="0.3333" style="stop-color:#F4D662"/>
					<stop  offset="0.5161" style="stop-color:#F4DE8B"/>
					<stop  offset="0.6613" style="stop-color:#F4D662"/>
					<stop  offset="1" style="stop-color:#B2782A"/>
				</linearGradient>
				<path class="st22" d="M22.4,15c-0.7,0.2-0.8,0.8-0.8,0.8s0.5,0.3,1.1,0.1C23.3,15.7,24,15,24,15S23,14.8,22.4,15z"/>
			</g>
			<g>
				<g>
					
						<linearGradient id="SVGID_24_" gradientUnits="userSpaceOnUse" x1="31.8503" y1="18.1" x2="34.8518" y2="18.1" gradientTransform="matrix(1 0 0 -1 0 55)">
						<stop  offset="0" style="stop-color:#B2782A"/>
						<stop  offset="5.761914e-02" style="stop-color:#B77F2E"/>
						<stop  offset="0.1404" style="stop-color:#C49239"/>
						<stop  offset="0.2379" style="stop-color:#DAB14C"/>
						<stop  offset="0.3333" style="stop-color:#F4D662"/>
						<stop  offset="0.5161" style="stop-color:#F4DE8B"/>
						<stop  offset="0.6613" style="stop-color:#F4D662"/>
						<stop  offset="1" style="stop-color:#B2782A"/>
					</linearGradient>
					<path class="st23" d="M32.2,36.9c-0.8,1.4-0.2,2.6-0.2,2.6s1.3-0.1,2.1-1.6c0.8-1.4,0.7-3.6,0.7-3.6S33,35.5,32.2,36.9z"/>
					
						<linearGradient id="SVGID_25_" gradientUnits="userSpaceOnUse" x1="32.0764" y1="15.5" x2="37.996" y2="15.5" gradientTransform="matrix(1 0 0 -1 0 55)">
						<stop  offset="0" style="stop-color:#B2782A"/>
						<stop  offset="5.761914e-02" style="stop-color:#B77F2E"/>
						<stop  offset="0.1404" style="stop-color:#C49239"/>
						<stop  offset="0.2379" style="stop-color:#DAB14C"/>
						<stop  offset="0.3333" style="stop-color:#F4D662"/>
						<stop  offset="0.5161" style="stop-color:#F4DE8B"/>
						<stop  offset="0.6613" style="stop-color:#F4D662"/>
						<stop  offset="1" style="stop-color:#B2782A"/>
					</linearGradient>
					<path class="st24" d="M34.5,40.6c-1.6,0-2.4-1.1-2.4-1.1s0.7-1.1,2.4-1.1c1.6,0,3.5,1.1,3.5,1.1S36.1,40.6,34.5,40.6z"/>
				</g>
				<g>
					
						<linearGradient id="SVGID_26_" gradientUnits="userSpaceOnUse" x1="35.3434" y1="20.05" x2="37.4694" y2="20.05" gradientTransform="matrix(1 0 0 -1 0 55)">
						<stop  offset="0" style="stop-color:#B2782A"/>
						<stop  offset="5.761914e-02" style="stop-color:#B77F2E"/>
						<stop  offset="0.1404" style="stop-color:#C49239"/>
						<stop  offset="0.2379" style="stop-color:#DAB14C"/>
						<stop  offset="0.3333" style="stop-color:#F4D662"/>
						<stop  offset="0.5161" style="stop-color:#F4DE8B"/>
						<stop  offset="0.6613" style="stop-color:#F4D662"/>
						<stop  offset="1" style="stop-color:#B2782A"/>
					</linearGradient>
					<path class="st25" d="M35.5,35.2c-0.4,1.4,0.3,2.3,0.3,2.3s1.1-0.4,1.5-1.8c0.4-1.4,0-3.3,0-3.3S35.9,33.8,35.5,35.2z"/>
					
						<linearGradient id="SVGID_27_" gradientUnits="userSpaceOnUse" x1="35.7926" y1="17.9583" x2="40.9373" y2="17.9583" gradientTransform="matrix(1 0 0 -1 0 55)">
						<stop  offset="0" style="stop-color:#B2782A"/>
						<stop  offset="5.761914e-02" style="stop-color:#B77F2E"/>
						<stop  offset="0.1404" style="stop-color:#C49239"/>
						<stop  offset="0.2379" style="stop-color:#DAB14C"/>
						<stop  offset="0.3333" style="stop-color:#F4D662"/>
						<stop  offset="0.5161" style="stop-color:#F4DE8B"/>
						<stop  offset="0.6613" style="stop-color:#F4D662"/>
						<stop  offset="1" style="stop-color:#B2782A"/>
					</linearGradient>
					<path class="st26" d="M38.1,38c-1.4,0.3-2.3-0.5-2.3-0.5s0.4-1.1,1.9-1.4c1.4-0.3,3.3,0.3,3.3,0.3S39.5,37.7,38.1,38z"/>
				</g>
				<g>
					
						<linearGradient id="SVGID_28_" gradientUnits="userSpaceOnUse" x1="37.7266" y1="22.7" x2="39.3959" y2="22.7" gradientTransform="matrix(1 0 0 -1 0 55)">
						<stop  offset="0" style="stop-color:#B2782A"/>
						<stop  offset="5.761914e-02" style="stop-color:#B77F2E"/>
						<stop  offset="0.1404" style="stop-color:#C49239"/>
						<stop  offset="0.2379" style="stop-color:#DAB14C"/>
						<stop  offset="0.3333" style="stop-color:#F4D662"/>
						<stop  offset="0.5161" style="stop-color:#F4DE8B"/>
						<stop  offset="0.6613" style="stop-color:#F4D662"/>
						<stop  offset="1" style="stop-color:#B2782A"/>
					</linearGradient>
					<path class="st27" d="M37.7,32.7c0,1.3,0.8,1.9,0.8,1.9s0.9-0.5,0.9-1.8S38.7,30,38.7,30S37.8,31.4,37.7,32.7z"/>
					
						<linearGradient id="SVGID_29_" gradientUnits="userSpaceOnUse" x1="38.493" y1="21.3555" x2="42.6207" y2="21.3555" gradientTransform="matrix(1 0 0 -1 0 55)">
						<stop  offset="0" style="stop-color:#B2782A"/>
						<stop  offset="5.761914e-02" style="stop-color:#B77F2E"/>
						<stop  offset="0.1404" style="stop-color:#C49239"/>
						<stop  offset="0.2379" style="stop-color:#DAB14C"/>
						<stop  offset="0.3333" style="stop-color:#F4D662"/>
						<stop  offset="0.5161" style="stop-color:#F4DE8B"/>
						<stop  offset="0.6613" style="stop-color:#F4D662"/>
						<stop  offset="1" style="stop-color:#B2782A"/>
					</linearGradient>
					<path class="st28" d="M40.5,34.5c-1.1,0.6-2,0.1-2,0.1s0.2-1,1.3-1.6s2.8-0.5,2.8-0.5S41.7,34,40.5,34.5z"/>
				</g>
				<g>
					
						<linearGradient id="SVGID_30_" gradientUnits="userSpaceOnUse" x1="38.6282" y1="26.05" x2="40.471" y2="26.05" gradientTransform="matrix(1 0 0 -1 0 55)">
						<stop  offset="0" style="stop-color:#B2782A"/>
						<stop  offset="5.761914e-02" style="stop-color:#B77F2E"/>
						<stop  offset="0.1404" style="stop-color:#C49239"/>
						<stop  offset="0.2379" style="stop-color:#DAB14C"/>
						<stop  offset="0.3333" style="stop-color:#F4D662"/>
						<stop  offset="0.5161" style="stop-color:#F4DE8B"/>
						<stop  offset="0.6613" style="stop-color:#F4D662"/>
						<stop  offset="1" style="stop-color:#B2782A"/>
					</linearGradient>
					<path class="st29" d="M38.9,29.6c0.4,1.1,1.3,1.4,1.3,1.4s0.6-0.8,0.1-1.9c-0.4-1.1-1.6-2.2-1.6-2.2S38.5,28.5,38.9,29.6z"/>
					
						<linearGradient id="SVGID_31_" gradientUnits="userSpaceOnUse" x1="40.1511" y1="25.6483" x2="43.0575" y2="25.6483" gradientTransform="matrix(1 0 0 -1 0 55)">
						<stop  offset="0" style="stop-color:#B2782A"/>
						<stop  offset="5.761914e-02" style="stop-color:#B77F2E"/>
						<stop  offset="0.1404" style="stop-color:#C49239"/>
						<stop  offset="0.2379" style="stop-color:#DAB14C"/>
						<stop  offset="0.3333" style="stop-color:#F4D662"/>
						<stop  offset="0.5161" style="stop-color:#F4DE8B"/>
						<stop  offset="0.6613" style="stop-color:#F4D662"/>
						<stop  offset="1" style="stop-color:#B2782A"/>
					</linearGradient>
					<path class="st30" d="M41.9,30.2c-0.8,0.9-1.7,0.8-1.7,0.8s-0.2-1,0.6-1.9s2.3-1.4,2.3-1.4S42.7,29.3,41.9,30.2z"/>
				</g>
				<g>
					
						<linearGradient id="SVGID_32_" gradientUnits="userSpaceOnUse" x1="38.3152" y1="29.5" x2="40.7752" y2="29.5" gradientTransform="matrix(1 0 0 -1 0 55)">
						<stop  offset="0" style="stop-color:#B2782A"/>
						<stop  offset="5.761914e-02" style="stop-color:#B77F2E"/>
						<stop  offset="0.1404" style="stop-color:#C49239"/>
						<stop  offset="0.2379" style="stop-color:#DAB14C"/>
						<stop  offset="0.3333" style="stop-color:#F4D662"/>
						<stop  offset="0.5161" style="stop-color:#F4DE8B"/>
						<stop  offset="0.6613" style="stop-color:#F4D662"/>
						<stop  offset="1" style="stop-color:#B2782A"/>
					</linearGradient>
					<path class="st31" d="M39.1,26.3c0.7,1,1.6,1,1.6,1s0.4-0.9-0.3-1.9s-2.1-1.7-2.1-1.7S38.4,25.3,39.1,26.3z"/>
					
						<linearGradient id="SVGID_33_" gradientUnits="userSpaceOnUse" x1="40.5243" y1="29.6" x2="42.7405" y2="29.6" gradientTransform="matrix(1 0 0 -1 0 55)">
						<stop  offset="0" style="stop-color:#B2782A"/>
						<stop  offset="5.761914e-02" style="stop-color:#B77F2E"/>
						<stop  offset="0.1404" style="stop-color:#C49239"/>
						<stop  offset="0.2379" style="stop-color:#DAB14C"/>
						<stop  offset="0.3333" style="stop-color:#F4D662"/>
						<stop  offset="0.5161" style="stop-color:#F4DE8B"/>
						<stop  offset="0.6613" style="stop-color:#F4D662"/>
						<stop  offset="1" style="stop-color:#B2782A"/>
					</linearGradient>
					<path class="st32" d="M42.2,26.2c-0.6,1-1.5,1.1-1.5,1.1s-0.4-0.8,0.1-1.9c0.6-1,1.9-1.9,1.9-1.9S42.8,25.1,42.2,26.2z"/>
				</g>
				<g>
					
						<linearGradient id="SVGID_34_" gradientUnits="userSpaceOnUse" x1="37.0091" y1="32.518" x2="40.1124" y2="32.518" gradientTransform="matrix(1 0 0 -1 0 55)">
						<stop  offset="0" style="stop-color:#B2782A"/>
						<stop  offset="5.761914e-02" style="stop-color:#B77F2E"/>
						<stop  offset="0.1404" style="stop-color:#C49239"/>
						<stop  offset="0.2379" style="stop-color:#DAB14C"/>
						<stop  offset="0.3333" style="stop-color:#F4D662"/>
						<stop  offset="0.5161" style="stop-color:#F4DE8B"/>
						<stop  offset="0.6613" style="stop-color:#F4D662"/>
						<stop  offset="1" style="stop-color:#B2782A"/>
					</linearGradient>
					<path class="st33" d="M38.4,23.3c0.9,0.7,1.7,0.4,1.7,0.4s0.1-0.9-0.8-1.6c-0.9-0.7-2.3-0.9-2.3-0.9S37.6,22.6,38.4,23.3z"/>
					
						<linearGradient id="SVGID_35_" gradientUnits="userSpaceOnUse" x1="39.6592" y1="33.25" x2="41.1777" y2="33.25" gradientTransform="matrix(1 0 0 -1 0 55)">
						<stop  offset="0" style="stop-color:#B2782A"/>
						<stop  offset="5.761914e-02" style="stop-color:#B77F2E"/>
						<stop  offset="0.1404" style="stop-color:#C49239"/>
						<stop  offset="0.2379" style="stop-color:#DAB14C"/>
						<stop  offset="0.3333" style="stop-color:#F4D662"/>
						<stop  offset="0.5161" style="stop-color:#F4DE8B"/>
						<stop  offset="0.6613" style="stop-color:#F4D662"/>
						<stop  offset="1" style="stop-color:#B2782A"/>
					</linearGradient>
					<path class="st34" d="M41.1,22.3c-0.2,1.1-1,1.4-1,1.4s-0.6-0.6-0.4-1.7c0.2-1.1,1.2-2.2,1.2-2.2S41.3,21.2,41.1,22.3z"/>
				</g>
				<g>
					
						<linearGradient id="SVGID_36_" gradientUnits="userSpaceOnUse" x1="32.5398" y1="38.35" x2="35.1185" y2="38.35" gradientTransform="matrix(1 0 0 -1 0 55)">
						<stop  offset="0" style="stop-color:#B2782A"/>
						<stop  offset="5.761914e-02" style="stop-color:#B77F2E"/>
						<stop  offset="0.1404" style="stop-color:#C49239"/>
						<stop  offset="0.2379" style="stop-color:#DAB14C"/>
						<stop  offset="0.3333" style="stop-color:#F4D662"/>
						<stop  offset="0.5161" style="stop-color:#F4DE8B"/>
						<stop  offset="0.6613" style="stop-color:#F4D662"/>
						<stop  offset="1" style="stop-color:#B2782A"/>
					</linearGradient>
					<path class="st35" d="M34.1,17.1c0.7,0,1.1-0.4,1.1-0.4s-0.3-0.5-1-0.5s-1.6,0.4-1.6,0.4S33.4,17.1,34.1,17.1z"/>
					
						<linearGradient id="SVGID_37_" gradientUnits="userSpaceOnUse" x1="33.9824" y1="39.45" x2="35.2334" y2="39.45" gradientTransform="matrix(1 0 0 -1 0 55)">
						<stop  offset="0" style="stop-color:#B2782A"/>
						<stop  offset="5.761914e-02" style="stop-color:#B77F2E"/>
						<stop  offset="0.1404" style="stop-color:#C49239"/>
						<stop  offset="0.2379" style="stop-color:#DAB14C"/>
						<stop  offset="0.3333" style="stop-color:#F4D662"/>
						<stop  offset="0.5161" style="stop-color:#F4DE8B"/>
						<stop  offset="0.6613" style="stop-color:#F4D662"/>
						<stop  offset="1" style="stop-color:#B2782A"/>
					</linearGradient>
					<path class="st36" d="M35.1,15.6c0.3,0.6,0,1.1,0,1.1s-0.6-0.1-0.9-0.7c-0.3-0.6-0.3-1.6-0.3-1.6S34.8,14.9,35.1,15.6z"/>
				</g>
				<g>
					
						<linearGradient id="SVGID_38_" gradientUnits="userSpaceOnUse" x1="33.7241" y1="36.9076" x2="37.0028" y2="36.9076" gradientTransform="matrix(1 0 0 -1 0 55)">
						<stop  offset="0" style="stop-color:#B2782A"/>
						<stop  offset="5.761914e-02" style="stop-color:#B77F2E"/>
						<stop  offset="0.1404" style="stop-color:#C49239"/>
						<stop  offset="0.2379" style="stop-color:#DAB14C"/>
						<stop  offset="0.3333" style="stop-color:#F4D662"/>
						<stop  offset="0.5161" style="stop-color:#F4DE8B"/>
						<stop  offset="0.6613" style="stop-color:#F4D662"/>
						<stop  offset="1" style="stop-color:#B2782A"/>
					</linearGradient>
					<path class="st37" d="M35.6,18.7c0.9,0.2,1.4-0.4,1.4-0.4s-0.3-0.7-1.2-0.8c-0.9-0.2-2.1,0.2-2.1,0.2S34.7,18.5,35.6,18.7z"/>
					
						<linearGradient id="SVGID_39_" gradientUnits="userSpaceOnUse" x1="35.8891" y1="38.2" x2="37.2649" y2="38.2" gradientTransform="matrix(1 0 0 -1 0 55)">
						<stop  offset="0" style="stop-color:#B2782A"/>
						<stop  offset="5.761914e-02" style="stop-color:#B77F2E"/>
						<stop  offset="0.1404" style="stop-color:#C49239"/>
						<stop  offset="0.2379" style="stop-color:#DAB14C"/>
						<stop  offset="0.3333" style="stop-color:#F4D662"/>
						<stop  offset="0.5161" style="stop-color:#F4DE8B"/>
						<stop  offset="0.6613" style="stop-color:#F4D662"/>
						<stop  offset="1" style="stop-color:#B2782A"/>
					</linearGradient>
					<path class="st38" d="M37.2,16.9c0.3,0.9-0.2,1.5-0.2,1.5s-0.7-0.2-1-1.1s0-2.1,0-2.1S36.9,16,37.2,16.9z"/>
				</g>
				<g>
					
						<linearGradient id="SVGID_40_" gradientUnits="userSpaceOnUse" x1="35.6225" y1="34.8783" x2="38.9225" y2="34.8783" gradientTransform="matrix(1 0 0 -1 0 55)">
						<stop  offset="0" style="stop-color:#B2782A"/>
						<stop  offset="5.761914e-02" style="stop-color:#B77F2E"/>
						<stop  offset="0.1404" style="stop-color:#C49239"/>
						<stop  offset="0.2379" style="stop-color:#DAB14C"/>
						<stop  offset="0.3333" style="stop-color:#F4D662"/>
						<stop  offset="0.5161" style="stop-color:#F4DE8B"/>
						<stop  offset="0.6613" style="stop-color:#F4D662"/>
						<stop  offset="1" style="stop-color:#B2782A"/>
					</linearGradient>
					<path class="st39" d="M37.3,20.8c0.9,0.5,1.6,0.1,1.6,0.1s-0.1-0.8-1-1.3s-2.3-0.4-2.3-0.4S36.4,20.4,37.3,20.8z"/>
					
						<linearGradient id="SVGID_41_" gradientUnits="userSpaceOnUse" x1="38.2281" y1="35.95" x2="39.5789" y2="35.95" gradientTransform="matrix(1 0 0 -1 0 55)">
						<stop  offset="0" style="stop-color:#B2782A"/>
						<stop  offset="5.761914e-02" style="stop-color:#B77F2E"/>
						<stop  offset="0.1404" style="stop-color:#C49239"/>
						<stop  offset="0.2379" style="stop-color:#DAB14C"/>
						<stop  offset="0.3333" style="stop-color:#F4D662"/>
						<stop  offset="0.5161" style="stop-color:#F4DE8B"/>
						<stop  offset="0.6613" style="stop-color:#F4D662"/>
						<stop  offset="1" style="stop-color:#B2782A"/>
					</linearGradient>
					<path class="st40" d="M39.6,19.4c0,1-0.7,1.5-0.7,1.5s-0.7-0.5-0.7-1.5s0.6-2.2,0.6-2.2S39.6,18.4,39.6,19.4z"/>
				</g>
				
					<linearGradient id="SVGID_42_" gradientUnits="userSpaceOnUse" x1="31.0356" y1="39.5601" x2="33.4806" y2="39.5601" gradientTransform="matrix(1 0 0 -1 0 55)">
					<stop  offset="0" style="stop-color:#B2782A"/>
					<stop  offset="5.761914e-02" style="stop-color:#B77F2E"/>
					<stop  offset="0.1404" style="stop-color:#C49239"/>
					<stop  offset="0.2379" style="stop-color:#DAB14C"/>
					<stop  offset="0.3333" style="stop-color:#F4D662"/>
					<stop  offset="0.5161" style="stop-color:#F4DE8B"/>
					<stop  offset="0.6613" style="stop-color:#F4D662"/>
					<stop  offset="1" style="stop-color:#B2782A"/>
				</linearGradient>
				<path class="st41" d="M32.6,15c0.7,0.2,0.8,0.8,0.8,0.8s-0.5,0.3-1.1,0.1C31.7,15.7,31,15,31,15S32,14.8,32.6,15z"/>
			</g>
			<g>
				
					<linearGradient id="SVGID_43_" gradientUnits="userSpaceOnUse" x1="39.3197" y1="42.8203" x2="16.4036" y2="23.7792" gradientTransform="matrix(1 0 0 -1 0 55)">
					<stop  offset="0" style="stop-color:#B2782A"/>
					<stop  offset="5.761914e-02" style="stop-color:#B77F2E"/>
					<stop  offset="0.1404" style="stop-color:#C49239"/>
					<stop  offset="0.2379" style="stop-color:#DAB14C"/>
					<stop  offset="0.3333" style="stop-color:#F4D662"/>
					<stop  offset="0.5161" style="stop-color:#F4DE8B"/>
					<stop  offset="0.6613" style="stop-color:#F4D662"/>
					<stop  offset="1" style="stop-color:#B2782A"/>
				</linearGradient>
				<path class="st42" d="M23,29.2v0.3h-3.5v-0.3l2.2-2.1c0.3-0.3,0.5-0.5,0.6-0.7s0.1-0.4,0.1-0.6c0-0.3-0.1-0.6-0.3-0.8
					c-0.2-0.2-0.5-0.3-1-0.3c-0.3,0-0.6,0-0.8,0.1c-0.2,0.1-0.4,0.2-0.6,0.4L19.4,25c0.2-0.2,0.4-0.4,0.7-0.5c0.3-0.1,0.6-0.2,1-0.2
					c0.5,0,0.9,0.1,1.2,0.4c0.3,0.2,0.4,0.6,0.4,1c0,0.3-0.1,0.5-0.2,0.8c-0.1,0.2-0.3,0.5-0.7,0.8L20,29.2H23z"/>
				
					<linearGradient id="SVGID_44_" gradientUnits="userSpaceOnUse" x1="40.9518" y1="40.8559" x2="18.0358" y2="21.8149" gradientTransform="matrix(1 0 0 -1 0 55)">
					<stop  offset="0" style="stop-color:#B2782A"/>
					<stop  offset="5.761914e-02" style="stop-color:#B77F2E"/>
					<stop  offset="0.1404" style="stop-color:#C49239"/>
					<stop  offset="0.2379" style="stop-color:#DAB14C"/>
					<stop  offset="0.3333" style="stop-color:#F4D662"/>
					<stop  offset="0.5161" style="stop-color:#F4DE8B"/>
					<stop  offset="0.6613" style="stop-color:#F4D662"/>
					<stop  offset="1" style="stop-color:#B2782A"/>
				</linearGradient>
				<path class="st43" d="M24.6,29.2c-0.3-0.2-0.5-0.5-0.7-0.9s-0.3-0.8-0.3-1.4c0-0.5,0.1-1,0.3-1.4c0.2-0.4,0.4-0.7,0.7-0.9
					c0.3-0.2,0.6-0.3,1-0.3s0.7,0.1,1,0.3c0.3,0.2,0.5,0.5,0.7,0.9s0.3,0.8,0.3,1.4c0,0.5-0.1,1-0.3,1.4c-0.2,0.4-0.4,0.7-0.7,0.9
					s-0.7,0.3-1,0.3C25.3,29.5,24.9,29.4,24.6,29.2z M26.5,28.9c0.2-0.2,0.4-0.4,0.6-0.8c0.1-0.3,0.2-0.7,0.2-1.2s-0.1-0.9-0.2-1.2
					c-0.1-0.3-0.3-0.6-0.6-0.8c-0.2-0.2-0.5-0.3-0.8-0.3s-0.6,0.1-0.8,0.3c-0.2,0.2-0.4,0.4-0.6,0.8c-0.1,0.3-0.2,0.7-0.2,1.2
					s0.1,0.9,0.2,1.2c0.1,0.3,0.3,0.6,0.6,0.8c0.2,0.2,0.5,0.3,0.8,0.3C26,29.2,26.3,29.1,26.5,28.9z"/>
				
					<linearGradient id="SVGID_45_" gradientUnits="userSpaceOnUse" x1="42.9139" y1="38.4947" x2="19.9978" y2="19.4536" gradientTransform="matrix(1 0 0 -1 0 55)">
					<stop  offset="0" style="stop-color:#B2782A"/>
					<stop  offset="5.761914e-02" style="stop-color:#B77F2E"/>
					<stop  offset="0.1404" style="stop-color:#C49239"/>
					<stop  offset="0.2379" style="stop-color:#DAB14C"/>
					<stop  offset="0.3333" style="stop-color:#F4D662"/>
					<stop  offset="0.5161" style="stop-color:#F4DE8B"/>
					<stop  offset="0.6613" style="stop-color:#F4D662"/>
					<stop  offset="1" style="stop-color:#B2782A"/>
				</linearGradient>
				<path class="st44" d="M31.8,29.2v0.3h-3.5v-0.3l2.2-2.1c0.3-0.3,0.5-0.5,0.6-0.7s0.1-0.4,0.1-0.6c0-0.3-0.1-0.6-0.3-0.8
					c-0.2-0.2-0.5-0.3-1-0.3c-0.3,0-0.6,0-0.8,0.1c-0.2,0.1-0.4,0.2-0.6,0.4L28.2,25c0.2-0.2,0.4-0.4,0.7-0.5c0.3-0.1,0.6-0.2,1-0.2
					c0.5,0,0.9,0.1,1.2,0.4c0.3,0.2,0.4,0.6,0.4,1c0,0.3-0.1,0.5-0.2,0.8c-0.1,0.2-0.3,0.5-0.7,0.8l-1.9,1.9
					C28.7,29.2,31.8,29.2,31.8,29.2z"/>
				
					<linearGradient id="SVGID_46_" gradientUnits="userSpaceOnUse" x1="44.4235" y1="36.678" x2="21.5071" y2="17.6368" gradientTransform="matrix(1 0 0 -1 0 55)">
					<stop  offset="0" style="stop-color:#B2782A"/>
					<stop  offset="5.761914e-02" style="stop-color:#B77F2E"/>
					<stop  offset="0.1404" style="stop-color:#C49239"/>
					<stop  offset="0.2379" style="stop-color:#DAB14C"/>
					<stop  offset="0.3333" style="stop-color:#F4D662"/>
					<stop  offset="0.5161" style="stop-color:#F4DE8B"/>
					<stop  offset="0.6613" style="stop-color:#F4D662"/>
					<stop  offset="1" style="stop-color:#B2782A"/>
				</linearGradient>
				<path class="st45" d="M35.4,26.9c0.3,0.3,0.5,0.6,0.5,1.1c0,0.3-0.1,0.6-0.2,0.8c-0.1,0.2-0.3,0.4-0.6,0.5s-0.6,0.2-1,0.2
					s-0.7-0.1-1-0.2s-0.6-0.3-0.8-0.5l0.2-0.3c0.2,0.2,0.4,0.3,0.7,0.5c0.3,0.1,0.6,0.2,0.9,0.2c0.5,0,0.8-0.1,1.1-0.3
					c0.2-0.2,0.4-0.5,0.4-0.8c0-0.4-0.1-0.7-0.4-0.9c-0.3-0.2-0.7-0.3-1.4-0.3h-1l0.3-2.5h2.7v0.3h-2.4l-0.2,1.8h0.7
					C34.5,26.5,35.1,26.7,35.4,26.9z"/>
			</g>
		</g>
	</g>
</g>
</svg>
