<?xml version="1.0" encoding="utf-8"?>
<!-- Generator: Adobe Illustrator 25.2.0, SVG Export Plug-In . SVG Version: 6.00 Build 0)  -->
<svg version="1.1" id="Layer_1" xmlns="http://www.w3.org/2000/svg" xmlns:xlink="http://www.w3.org/1999/xlink" x="0px" y="0px"
	 viewBox="0 0 55 55" style="enable-background:new 0 0 55 55;" xml:space="preserve">
<style type="text/css">
	.st0{fill:url(#SVGID_1_);}
	.st1{fill:url(#SVGID_2_);}
	.st2{fill:url(#SVGID_3_);}
	.st3{fill:url(#SVGID_4_);}
	.st4{fill:url(#SVGID_5_);}
	.st5{fill:url(#SVGID_6_);}
	.st6{fill:url(#SVGID_7_);}
	.st7{fill:url(#SVGID_8_);}
	.st8{fill:url(#SVGID_9_);}
	.st9{fill:url(#SVGID_10_);}
	.st10{fill:url(#SVGID_11_);}
	.st11{fill:url(#SVGID_12_);}
	.st12{fill:url(#SVGID_13_);}
	.st13{fill:url(#SVGID_14_);}
	.st14{fill:url(#SVGID_15_);}
	.st15{fill:url(#SVGID_16_);}
	.st16{fill:url(#SVGID_17_);}
	.st17{fill:url(#SVGID_18_);}
	.st18{fill:url(#SVGID_19_);}
	.st19{fill:url(#SVGID_20_);}
	.st20{fill:url(#SVGID_21_);}
	.st21{fill:url(#SVGID_22_);}
	.st22{fill:url(#SVGID_23_);}
	.st23{fill:url(#SVGID_24_);}
	.st24{fill:url(#SVGID_25_);}
	.st25{fill:url(#SVGID_26_);}
	.st26{fill:url(#SVGID_27_);}
	.st27{fill:url(#SVGID_28_);}
	.st28{fill:url(#SVGID_29_);}
	.st29{fill:url(#SVGID_30_);}
	.st30{fill:url(#SVGID_31_);}
	.st31{fill:url(#SVGID_32_);}
	.st32{fill:url(#SVGID_33_);}
	.st33{fill:url(#SVGID_34_);}
	.st34{fill:url(#SVGID_35_);}
	.st35{fill:url(#SVGID_36_);}
	.st36{fill:url(#SVGID_37_);}
	.st37{fill:url(#SVGID_38_);}
	.st38{fill:url(#SVGID_39_);}
	.st39{fill:url(#SVGID_40_);}
	.st40{fill:url(#SVGID_41_);}
	.st41{fill:url(#SVGID_42_);}
	.st42{fill:url(#SVGID_43_);}
	.st43{fill:url(#SVGID_44_);}
	.st44{fill:url(#SVGID_45_);}
	.st45{fill:url(#SVGID_46_);}
	.st46{fill:url(#SVGID_47_);}
	.st47{fill:url(#SVGID_48_);}
	.st48{fill:url(#SVGID_49_);}
	.st49{fill:url(#SVGID_50_);}
	.st50{fill:url(#SVGID_51_);}
	.st51{fill:url(#SVGID_52_);}
	.st52{fill:url(#SVGID_53_);}
	.st53{fill:url(#SVGID_54_);}
	.st54{fill:url(#SVGID_55_);}
	.st55{fill:url(#SVGID_56_);}
	.st56{fill:url(#SVGID_57_);}
	.st57{fill:url(#SVGID_58_);}
	.st58{fill:url(#SVGID_59_);}
	.st59{fill:url(#SVGID_60_);}
	.st60{fill:url(#SVGID_61_);}
	.st61{fill:url(#SVGID_62_);}
</style>
<g>
	<g>
		<linearGradient id="SVGID_1_" gradientUnits="userSpaceOnUse" x1="45.9044" y1="5.1267" x2="7.0652" y2="52.3396">
			<stop  offset="0" style="stop-color:#B2782A"/>
			<stop  offset="5.761914e-02" style="stop-color:#B77F2E"/>
			<stop  offset="0.1404" style="stop-color:#C49239"/>
			<stop  offset="0.2379" style="stop-color:#DAB14C"/>
			<stop  offset="0.3333" style="stop-color:#F4D662"/>
			<stop  offset="0.5161" style="stop-color:#F4DE8B"/>
			<stop  offset="0.6613" style="stop-color:#F4D662"/>
			<stop  offset="1" style="stop-color:#B2782A"/>
		</linearGradient>
		<path class="st0" d="M4.4,29.9c0.6-1.3,0.6-3.5,0-4.8c-0.6-1.3-0.2-3.2,0.8-4.2c1.1-1,1.9-3,1.8-4.5c-0.1-1.5,1-3.1,2.4-3.6
			c1.4-0.5,2.9-2,3.4-3.4C13.4,8.1,15,7,16.4,7.1c1.5,0.1,3.5-0.8,4.5-1.8c1-1.1,2.9-1.5,4.2-0.8c1.3,0.6,3.5,0.6,4.8,0
			c1.3-0.6,3.2-0.2,4.2,0.8c1,1.1,3,1.9,4.5,1.8c1.5-0.1,3.1,1,3.6,2.4c0.5,1.4,2,2.9,3.4,3.4c1.4,0.5,2.4,2.1,2.4,3.6
			c-0.1,1.5,0.8,3.5,1.8,4.5c1.1,1,1.5,2.9,0.8,4.2c-0.6,1.3-0.6,3.5,0,4.8c0.6,1.3,0.2,3.2-0.8,4.2c-1.1,1-1.9,3-1.8,4.5
			c0.1,1.5-1,3.1-2.4,3.6c-1.4,0.5-2.9,2-3.4,3.4c-0.5,1.4-2.1,2.4-3.6,2.4c-1.5-0.1-3.5,0.8-4.5,1.8c-1,1.1-2.9,1.5-4.2,0.8
			c-1.3-0.6-3.5-0.6-4.8,0c-1.3,0.6-3.2,0.2-4.2-0.8c-1-1.1-3-1.9-4.5-1.8c-1.5,0.1-3.1-1-3.6-2.4c-0.5-1.4-2-2.9-3.4-3.4
			C8.1,41.6,7,40,7.1,38.6c0.1-1.5-0.8-3.5-1.8-4.5C4.2,33.1,3.8,31.2,4.4,29.9z"/>
		<linearGradient id="SVGID_2_" gradientUnits="userSpaceOnUse" x1="16.1697" y1="41.3983" x2="40.0738" y2="12.0785">
			<stop  offset="0" style="stop-color:#020000"/>
			<stop  offset="0.3493" style="stop-color:#100F0F"/>
			<stop  offset="1" style="stop-color:#353535"/>
		</linearGradient>
		<path class="st1" d="M48.1,27.5c0,11.4-9.2,20.6-20.6,20.6c-11.4,0-20.6-9.2-20.6-20.6c0-11.4,9.2-20.6,20.6-20.6
			C38.9,6.9,48.1,16.1,48.1,27.5z"/>
		<linearGradient id="SVGID_3_" gradientUnits="userSpaceOnUse" x1="8.2196" y1="27.5006" x2="46.7817" y2="27.5006">
			<stop  offset="0" style="stop-color:#B2782A"/>
			<stop  offset="5.761914e-02" style="stop-color:#B77F2E"/>
			<stop  offset="0.1404" style="stop-color:#C49239"/>
			<stop  offset="0.2379" style="stop-color:#DAB14C"/>
			<stop  offset="0.3333" style="stop-color:#F4D662"/>
			<stop  offset="0.5161" style="stop-color:#F4DE8B"/>
			<stop  offset="0.6613" style="stop-color:#F4D662"/>
			<stop  offset="1" style="stop-color:#B2782A"/>
		</linearGradient>
		<path class="st2" d="M27.5,8.6c10.4,0,18.9,8.5,18.9,18.9c0,10.4-8.5,18.9-18.9,18.9c-10.4,0-18.9-8.5-18.9-18.9
			C8.6,17.1,17.1,8.6,27.5,8.6 M27.5,8.2c-10.6,0-19.3,8.6-19.3,19.3c0,10.6,8.6,19.3,19.3,19.3s19.3-8.6,19.3-19.3
			C46.8,16.9,38.1,8.2,27.5,8.2L27.5,8.2z"/>
	</g>
	<g>
		<linearGradient id="SVGID_4_" gradientUnits="userSpaceOnUse" x1="16.3312" y1="32.1265" x2="40.3858" y2="55.9988">
			<stop  offset="0" style="stop-color:#B2782A"/>
			<stop  offset="5.761914e-02" style="stop-color:#B77F2E"/>
			<stop  offset="0.1404" style="stop-color:#C49239"/>
			<stop  offset="0.2379" style="stop-color:#DAB14C"/>
			<stop  offset="0.3333" style="stop-color:#F4D662"/>
			<stop  offset="0.5161" style="stop-color:#F4DE8B"/>
			<stop  offset="0.6613" style="stop-color:#F4D662"/>
			<stop  offset="1" style="stop-color:#B2782A"/>
		</linearGradient>
		<path class="st3" d="M14.4,35.4l1.5-7.5h1.4l1.5,7.5h-1.3l-0.3-1.7H16l-0.3,1.7H14.4z M16.1,32.8h1l-0.5-3.1L16.1,32.8z"/>
		<linearGradient id="SVGID_5_" gradientUnits="userSpaceOnUse" x1="19.8499" y1="28.5809" x2="43.9072" y2="52.4559">
			<stop  offset="0" style="stop-color:#B2782A"/>
			<stop  offset="5.761914e-02" style="stop-color:#B77F2E"/>
			<stop  offset="0.1404" style="stop-color:#C49239"/>
			<stop  offset="0.2379" style="stop-color:#DAB14C"/>
			<stop  offset="0.3333" style="stop-color:#F4D662"/>
			<stop  offset="0.5161" style="stop-color:#F4DE8B"/>
			<stop  offset="0.6613" style="stop-color:#F4D662"/>
			<stop  offset="1" style="stop-color:#B2782A"/>
		</linearGradient>
		<path class="st4" d="M20.5,35.4l-1.1-7.5h1.1l0.6,4.8l0.8-4.8h0.9l0.8,4.8l0.6-4.8h1.1l-1.1,7.5h-1.1l-0.8-5l-0.8,5H20.5z"/>
		<linearGradient id="SVGID_6_" gradientUnits="userSpaceOnUse" x1="22.0354" y1="26.3789" x2="46.0899" y2="50.2512">
			<stop  offset="0" style="stop-color:#B2782A"/>
			<stop  offset="5.761914e-02" style="stop-color:#B77F2E"/>
			<stop  offset="0.1404" style="stop-color:#C49239"/>
			<stop  offset="0.2379" style="stop-color:#DAB14C"/>
			<stop  offset="0.3333" style="stop-color:#F4D662"/>
			<stop  offset="0.5161" style="stop-color:#F4DE8B"/>
			<stop  offset="0.6613" style="stop-color:#F4D662"/>
			<stop  offset="1" style="stop-color:#B2782A"/>
		</linearGradient>
		<path class="st5" d="M25.9,35.4l1.5-7.5h1.4l1.5,7.5h-1.3l-0.3-1.7h-1.3l-0.3,1.7H25.9z M27.6,32.8h1l-0.5-3.1L27.6,32.8z"/>
		<linearGradient id="SVGID_7_" gradientUnits="userSpaceOnUse" x1="24.7458" y1="23.6463" x2="48.8028" y2="47.521">
			<stop  offset="0" style="stop-color:#B2782A"/>
			<stop  offset="5.761914e-02" style="stop-color:#B77F2E"/>
			<stop  offset="0.1404" style="stop-color:#C49239"/>
			<stop  offset="0.2379" style="stop-color:#DAB14C"/>
			<stop  offset="0.3333" style="stop-color:#F4D662"/>
			<stop  offset="0.5161" style="stop-color:#F4DE8B"/>
			<stop  offset="0.6613" style="stop-color:#F4D662"/>
			<stop  offset="1" style="stop-color:#B2782A"/>
		</linearGradient>
		<path class="st6" d="M31.3,35.4v-7.5H33c0.4,0,0.7,0,1,0.1c0.3,0.1,0.5,0.2,0.7,0.3c0.2,0.2,0.4,0.4,0.5,0.6
			c0.1,0.3,0.2,0.6,0.2,1c0,0.5-0.1,0.8-0.2,1.1c-0.1,0.3-0.4,0.5-0.7,0.6l1,3.7h-1.4L33.3,32h-0.6v3.4H31.3z M32.7,31.1H33
			c0.4,0,0.7-0.1,0.9-0.3c0.2-0.2,0.3-0.5,0.3-0.9c0-0.4-0.1-0.7-0.2-0.9c-0.1-0.2-0.4-0.3-0.8-0.3h-0.4V31.1z"/>
		<linearGradient id="SVGID_8_" gradientUnits="userSpaceOnUse" x1="27.3858" y1="20.9834" x2="51.4448" y2="44.8601">
			<stop  offset="0" style="stop-color:#B2782A"/>
			<stop  offset="5.761914e-02" style="stop-color:#B77F2E"/>
			<stop  offset="0.1404" style="stop-color:#C49239"/>
			<stop  offset="0.2379" style="stop-color:#DAB14C"/>
			<stop  offset="0.3333" style="stop-color:#F4D662"/>
			<stop  offset="0.5161" style="stop-color:#F4DE8B"/>
			<stop  offset="0.6613" style="stop-color:#F4D662"/>
			<stop  offset="1" style="stop-color:#B2782A"/>
		</linearGradient>
		<path class="st7" d="M36.6,35.4v-7.5h1.7c0.4,0,0.8,0,1.1,0.1c0.3,0.1,0.5,0.2,0.7,0.4c0.2,0.2,0.3,0.4,0.4,0.7
			c0.1,0.3,0.1,0.6,0.1,1V33c0,0.4,0,0.8-0.1,1.1c-0.1,0.3-0.2,0.5-0.4,0.8c-0.2,0.2-0.4,0.4-0.7,0.5c-0.3,0.1-0.7,0.1-1.1,0.1H36.6
			z M38,34.4h0.4c0.1,0,0.3,0,0.4,0c0.1,0,0.2-0.1,0.3-0.1c0.1,0,0.1-0.1,0.2-0.2c0-0.1,0.1-0.1,0.1-0.2c0-0.1,0-0.2,0.1-0.3
			c0-0.1,0-0.2,0-0.3c0-0.1,0-0.2,0-0.4v-2.7c0-0.2,0-0.3,0-0.4c0-0.1,0-0.2,0-0.3c0-0.1-0.1-0.2-0.1-0.3c0-0.1-0.1-0.1-0.2-0.2
			c-0.1,0-0.2-0.1-0.3-0.1c-0.1,0-0.2,0-0.4,0H38V34.4z"/>
	</g>
	<g>
		<linearGradient id="SVGID_9_" gradientUnits="userSpaceOnUse" x1="21.8544" y1="6.9245" x2="21.8544" y2="40.9472">
			<stop  offset="0" style="stop-color:#B2782A"/>
			<stop  offset="5.761914e-02" style="stop-color:#B77F2E"/>
			<stop  offset="0.1404" style="stop-color:#C49239"/>
			<stop  offset="0.2379" style="stop-color:#DAB14C"/>
			<stop  offset="0.3333" style="stop-color:#F4D662"/>
			<stop  offset="0.5161" style="stop-color:#F4DE8B"/>
			<stop  offset="0.6613" style="stop-color:#F4D662"/>
			<stop  offset="1" style="stop-color:#B2782A"/>
		</linearGradient>
		<path class="st8" d="M18.3,22c-0.5,0.3-0.8,0.3-1.1,0.2c-0.3-0.2-0.4-0.5-0.5-0.9c0-0.4,0-0.9,0.2-1.5c0.2-0.6,0.5-1.2,0.9-1.8
			c0.4-0.6,0.9-1.2,1.5-1.7c0.6-0.5,1.4-0.9,2.3-1.2c0.8-0.3,1.5-0.3,2.2-0.2c0.7,0.2,1.2,0.5,1.5,0.9c0.4,0.5,0.5,1,0.4,1.8
			c-0.1,0.7-0.4,1.5-1.1,2.4c0,0.1-0.1,0.2-0.2,0.3c-0.1,0.1-0.3,0.3-0.4,0.5c-0.2,0.2-0.4,0.4-0.6,0.7c-0.2,0.2-0.4,0.5-0.6,0.7
			c0.4,0,0.8,0.1,1.1,0.4c0.3,0.3,0.5,0.8,0.5,1.4v0c0.4-0.1,0.7-0.3,1.1-0.4c0.4-0.1,0.8-0.2,1.1-0.4c0.1,0,0.2,0,0.2,0.1
			c0,0,0.1,0.1,0,0.2c0,0.1,0,0.1-0.1,0.1c0,0-0.1,0-0.1,0c-0.4,0.1-0.8,0.2-1.2,0.4c-0.4,0.2-0.8,0.3-1.1,0.5
			c-0.1,0.6-0.3,1.1-0.7,1.6c-0.3,0.5-0.7,1-1.1,1.3c-0.4,0.4-0.8,0.7-1.2,1c-0.4,0.3-0.8,0.5-1.1,0.6c-0.2,0.1-0.4,0.1-0.6,0.1
			c-0.2,0-0.4-0.1-0.5-0.2c-0.1-0.1-0.2-0.2-0.3-0.4c0-0.2,0-0.4,0.1-0.7c0.1-0.3,0.3-0.6,0.6-0.9c0.3-0.3,0.8-0.7,1.4-1.1
			c0.2-0.1,0.4-0.3,0.6-0.4c0.2-0.1,0.4-0.2,0.5-0.3s0.4-0.2,0.6-0.3c0.2-0.1,0.4-0.2,0.7-0.3c0-0.3,0-0.5,0-0.8
			c-0.1-0.2-0.1-0.4-0.3-0.6c-0.1-0.2-0.3-0.3-0.5-0.3c-0.2,0-0.4,0-0.6,0c-0.4,0.3-0.7,0.6-0.9,0.8c-0.3,0.2-0.5,0.2-0.6,0
			c-0.1-0.1-0.1-0.2-0.1-0.3c0-0.1,0.1-0.2,0.2-0.3c0.1-0.1,0.2-0.2,0.4-0.3c0.2-0.1,0.3-0.2,0.5-0.3c0.4-0.3,0.7-0.7,1.1-1.2
			c0.4-0.4,0.7-0.9,1-1.4c0.3-0.5,0.6-0.9,0.8-1.4c0.2-0.5,0.3-0.9,0.3-1.2c0-0.6-0.2-1-0.6-1.2c-0.4-0.3-0.8-0.4-1.3-0.4
			c-0.5,0-1.1,0.1-1.7,0.4c-0.6,0.2-1.2,0.6-1.8,1c-0.6,0.4-1.1,1-1.5,1.6c-0.4,0.6-0.7,1.3-0.8,2c0,0.2,0,0.5,0,0.7
			c0,0.2,0,0.4,0.1,0.5c0.1,0.1,0.2,0.2,0.3,0.2c0.1,0,0.3-0.1,0.4-0.2c0.1-0.1,0.2-0.1,0.2-0.1c0.1,0,0.1,0,0.2,0.1
			c0,0,0.1,0.1,0,0.2C18.4,21.9,18.3,22,18.3,22z M21.6,17.4c-0.1,0.5-0.3,1.1-0.5,1.8c-0.2,0.7-0.4,1.4-0.6,2.2
			c-0.2,0.7-0.4,1.5-0.6,2.2c-0.2,0.7-0.3,1.4-0.4,2.1c0,0,0,0,0,0.1c0,0.1-0.1,0.2-0.2,0.3c-0.1,0.1-0.1,0.1-0.2,0.1
			c-0.1,0-0.1-0.1-0.1-0.4c0.1-0.6,0.2-1.3,0.3-2c0.1-0.7,0.2-1.5,0.4-2.2c0.1-0.7,0.3-1.5,0.4-2.2c0.1-0.7,0.3-1.4,0.4-2
			c-0.1,0-0.1-0.1-0.1-0.1c0-0.1,0.1-0.1,0.2-0.2c0.1,0,0.2-0.1,0.3-0.1c0.1,0,0.2,0,0.3,0c0.1,0,0.2,0,0.2,0.1
			C21.6,17.2,21.6,17.3,21.6,17.4z M23.5,24.9c-0.5,0.2-0.9,0.5-1.4,0.8c-0.5,0.3-0.9,0.6-1.3,0.9c-0.4,0.3-0.7,0.6-0.9,0.8
			c-0.2,0.3-0.3,0.5-0.3,0.7c0,0.2,0.1,0.3,0.3,0.3c0.2,0,0.4-0.1,0.5-0.2c0.2-0.1,0.4-0.2,0.5-0.3c0.2-0.1,0.2-0.2,0.2-0.2
			c0.6-0.5,1.1-1,1.4-1.5C23,25.7,23.3,25.3,23.5,24.9z"/>
		<linearGradient id="SVGID_10_" gradientUnits="userSpaceOnUse" x1="28.5472" y1="6.9226" x2="28.5472" y2="40.9481">
			<stop  offset="0" style="stop-color:#B2782A"/>
			<stop  offset="5.761914e-02" style="stop-color:#B77F2E"/>
			<stop  offset="0.1404" style="stop-color:#C49239"/>
			<stop  offset="0.2379" style="stop-color:#DAB14C"/>
			<stop  offset="0.3333" style="stop-color:#F4D662"/>
			<stop  offset="0.5161" style="stop-color:#F4DE8B"/>
			<stop  offset="0.6613" style="stop-color:#F4D662"/>
			<stop  offset="1" style="stop-color:#B2782A"/>
		</linearGradient>
		<path class="st9" d="M27.4,23.8c-0.1,0.3-0.2,0.6-0.2,0.8c0,0.2,0,0.4,0,0.6c0,0.2,0.1,0.3,0.2,0.4c0.1,0.1,0.2,0.1,0.3,0.1
			c0.3-0.1,0.6-0.2,0.8-0.3c0.3-0.2,0.5-0.3,0.8-0.6c0.3-0.2,0.5-0.4,0.7-0.7c0.2-0.3,0.4-0.5,0.6-0.8c0-0.1,0.1-0.1,0.2-0.2
			c0.1,0,0.1,0,0.1,0c0,0,0.1,0.1,0.1,0.1c0,0.1,0,0.1-0.1,0.2c-0.9,1.4-1.9,2.3-3.2,2.6c-0.5,0.1-0.9,0.1-1.1-0.2
			c-0.2-0.2-0.4-0.6-0.4-1c0-0.4,0-0.8,0.2-1.3c0.2-0.4,0.4-0.8,0.7-1.1c0.3-0.3,0.6-0.5,0.8-0.6c0.3-0.1,0.5-0.1,0.7-0.1
			c0.2,0,0.3,0.1,0.4,0.2c0.1,0.1,0.2,0.3,0.2,0.4c0,0.2-0.2,0.5-0.5,0.7C28.4,23.6,28,23.7,27.4,23.8z M27.5,23.6
			c0.1,0,0.3-0.1,0.5-0.2c0.2-0.1,0.3-0.2,0.5-0.3c0.1-0.1,0.2-0.2,0.3-0.3c0.1-0.1,0-0.2,0-0.2c-0.1,0-0.2,0-0.3,0.1
			c-0.1,0.1-0.2,0.2-0.3,0.3c-0.1,0.1-0.2,0.2-0.3,0.4C27.7,23.3,27.6,23.5,27.5,23.6z"/>
		<linearGradient id="SVGID_11_" gradientUnits="userSpaceOnUse" x1="32.4469" y1="6.9233" x2="32.4469" y2="40.9474">
			<stop  offset="0" style="stop-color:#B2782A"/>
			<stop  offset="5.761914e-02" style="stop-color:#B77F2E"/>
			<stop  offset="0.1404" style="stop-color:#C49239"/>
			<stop  offset="0.2379" style="stop-color:#DAB14C"/>
			<stop  offset="0.3333" style="stop-color:#F4D662"/>
			<stop  offset="0.5161" style="stop-color:#F4DE8B"/>
			<stop  offset="0.6613" style="stop-color:#F4D662"/>
			<stop  offset="1" style="stop-color:#B2782A"/>
		</linearGradient>
		<path class="st10" d="M32.6,21.6c-0.2,0-0.3,0.1-0.5,0.3c-0.2,0.2-0.4,0.4-0.5,0.7c-0.1,0.3-0.2,0.6-0.3,0.9c0,0.3,0,0.6,0.2,0.9
			c0.3-0.2,0.5-0.4,0.8-0.6c0.3-0.2,0.5-0.4,0.7-0.5c0.2-0.2,0.5-0.3,0.8-0.5c0.3-0.2,0.5-0.3,0.9-0.5c0.2-0.1,0.3,0,0.3,0.1
			c0,0.1,0,0.2-0.2,0.2c-0.6,0.3-1.1,0.7-1.5,1c-0.5,0.3-1,0.7-1.5,1.1c0.1,0.2,0.2,0.4,0.3,0.6c0.1,0.2,0.1,0.4,0.1,0.6
			c0,0.2-0.1,0.4-0.2,0.6c-0.1,0.2-0.3,0.4-0.6,0.6c-0.5,0.3-0.8,0.4-1.1,0.4c-0.3,0-0.4-0.1-0.5-0.4c0-0.2,0-0.5,0.2-0.9
			c0.2-0.4,0.5-0.8,1-1.3c-0.3-0.4-0.5-0.8-0.6-1.1c-0.1-0.4,0-0.7,0.1-1.1c0.1-0.3,0.3-0.6,0.5-0.9c0.2-0.3,0.5-0.4,0.7-0.6
			c0.3-0.1,0.5-0.2,0.7-0.2c0.2,0,0.4,0.1,0.5,0.2c0,0.1,0.1,0.1,0,0.2c0,0.1-0.1,0.1-0.1,0.2c-0.1,0-0.1,0.1-0.2,0.1
			C32.8,21.8,32.7,21.7,32.6,21.6z M31.3,25.3l-0.1,0.1c0,0-0.1,0.1-0.2,0.2c-0.1,0.1-0.2,0.2-0.3,0.4c-0.1,0.1-0.2,0.3-0.3,0.4
			c-0.1,0.1-0.1,0.2-0.1,0.3c0,0.1,0,0.1,0.1,0.1c0.1,0,0.3-0.1,0.5-0.2c0.3-0.2,0.5-0.4,0.5-0.6C31.5,25.8,31.5,25.5,31.3,25.3z"/>
		<linearGradient id="SVGID_12_" gradientUnits="userSpaceOnUse" x1="36.3698" y1="6.9246" x2="36.3698" y2="40.9463">
			<stop  offset="0" style="stop-color:#B2782A"/>
			<stop  offset="5.761914e-02" style="stop-color:#B77F2E"/>
			<stop  offset="0.1404" style="stop-color:#C49239"/>
			<stop  offset="0.2379" style="stop-color:#DAB14C"/>
			<stop  offset="0.3333" style="stop-color:#F4D662"/>
			<stop  offset="0.5161" style="stop-color:#F4DE8B"/>
			<stop  offset="0.6613" style="stop-color:#F4D662"/>
			<stop  offset="1" style="stop-color:#B2782A"/>
		</linearGradient>
		<path class="st11" d="M37.2,18.5c-0.1,0.1-0.3,0.3-0.4,0.6c-0.1,0.2-0.3,0.5-0.4,0.8c0.4,0,0.8-0.1,1.2-0.1c0.4,0,0.8,0,1.3,0
			c0.2,0,0.3,0,0.3,0.1c0,0.1,0,0.1-0.1,0.2c-0.1,0.1-0.1,0.1-0.2,0.1c-0.1,0-0.1,0-0.1-0.2c-0.5,0-1,0.1-1.4,0.1
			c-0.4,0-0.9,0.1-1.3,0.2c-0.2,0.6-0.4,1.1-0.6,1.8c-0.2,0.6-0.3,1.2-0.4,1.7c-0.1,0.5-0.1,1-0.1,1.4c0,0.4,0.1,0.6,0.2,0.7
			c0.1,0,0.2,0,0.3-0.1c0.1-0.1,0.2-0.2,0.4-0.4c0.1-0.2,0.3-0.4,0.4-0.6c0.1-0.2,0.2-0.4,0.4-0.6c0.1-0.2,0.2-0.4,0.3-0.6
			c0.1-0.2,0.1-0.3,0.2-0.3c0-0.1,0.1-0.1,0.1-0.2c0.1,0,0.1,0,0.1,0c0,0,0.1,0.1,0.1,0.1c0,0.1,0,0.1,0,0.2c-0.2,0.3-0.3,0.7-0.5,1
			c-0.2,0.3-0.3,0.6-0.5,0.9c-0.2,0.4-0.5,0.7-0.8,0.9c-0.3,0.2-0.5,0.3-0.7,0.3c-0.3,0-0.6-0.2-0.7-0.6c-0.1-0.4-0.2-0.9-0.2-1.4
			c0-0.6,0.1-1.2,0.2-1.9c0.1-0.7,0.3-1.3,0.5-1.9c-0.2,0.1-0.5,0.1-0.7,0.2c-0.2,0.1-0.5,0.1-0.7,0.2c-0.1,0-0.2,0-0.2-0.1
			c0-0.1,0-0.1,0-0.2c0-0.1,0.1-0.2,0.1-0.3c0.1-0.1,0.1-0.1,0.2-0.2c0.3-0.1,0.5-0.1,0.7-0.2c0.2-0.1,0.5-0.1,0.7-0.1
			c0.1-0.4,0.3-0.7,0.4-1c0.1-0.3,0.2-0.5,0.4-0.6c0-0.1,0.1-0.1,0.3-0.2c0.2,0,0.3,0,0.5,0c0.2,0,0.3,0.1,0.4,0.1
			C37.2,18.4,37.2,18.5,37.2,18.5z"/>
	</g>
</g>
</svg>
