<?xml version="1.0" encoding="utf-8"?>
<!-- Generator: Adobe Illustrator 25.2.0, SVG Export Plug-In . SVG Version: 6.00 Build 0)  -->
<svg version="1.1" id="Layer_1" xmlns="http://www.w3.org/2000/svg" xmlns:xlink="http://www.w3.org/1999/xlink" x="0px" y="0px"
	 viewBox="0 0 55 55" style="enable-background:new 0 0 55 55;" xml:space="preserve">
<style type="text/css">
	.st0{fill:url(#SVGID_1_);}
	.st1{fill:url(#SVGID_2_);}
	.st2{fill:url(#SVGID_3_);}
	.st3{fill:url(#SVGID_4_);}
	.st4{fill:url(#SVGID_5_);}
	.st5{fill:url(#SVGID_6_);}
	.st6{fill:url(#SVGID_7_);}
	.st7{fill:url(#SVGID_8_);}
	.st8{fill:url(#SVGID_9_);}
	.st9{fill:url(#SVGID_10_);}
	.st10{fill:url(#SVGID_11_);}
	.st11{fill:url(#SVGID_12_);}
	.st12{fill:url(#SVGID_13_);}
	.st13{fill:url(#SVGID_14_);}
	.st14{fill:url(#SVGID_15_);}
	.st15{fill:url(#SVGID_16_);}
	.st16{fill:url(#SVGID_17_);}
	.st17{fill:url(#SVGID_18_);}
	.st18{fill:url(#SVGID_19_);}
	.st19{fill:url(#SVGID_20_);}
	.st20{fill:url(#SVGID_21_);}
	.st21{fill:url(#SVGID_22_);}
	.st22{fill:url(#SVGID_23_);}
	.st23{fill:url(#SVGID_24_);}
	.st24{fill:url(#SVGID_25_);}
	.st25{fill:url(#SVGID_26_);}
	.st26{fill:url(#SVGID_27_);}
	.st27{fill:url(#SVGID_28_);}
	.st28{fill:url(#SVGID_29_);}
	.st29{fill:url(#SVGID_30_);}
	.st30{fill:url(#SVGID_31_);}
	.st31{fill:url(#SVGID_32_);}
	.st32{fill:url(#SVGID_33_);}
	.st33{fill:url(#SVGID_34_);}
	.st34{fill:url(#SVGID_35_);}
	.st35{fill:url(#SVGID_36_);}
	.st36{fill:url(#SVGID_37_);}
	.st37{fill:url(#SVGID_38_);}
	.st38{fill:url(#SVGID_39_);}
	.st39{fill:url(#SVGID_40_);}
	.st40{fill:url(#SVGID_41_);}
	.st41{fill:url(#SVGID_42_);}
	.st42{fill:url(#SVGID_43_);}
	.st43{fill:url(#SVGID_44_);}
	.st44{fill:url(#SVGID_45_);}
	.st45{fill:url(#SVGID_46_);}
	.st46{fill:url(#SVGID_47_);}
	.st47{fill:url(#SVGID_48_);}
	.st48{fill:url(#SVGID_49_);}
	.st49{fill:url(#SVGID_50_);}
	.st50{fill:url(#SVGID_51_);}
	.st51{fill:url(#SVGID_52_);}
	.st52{fill:url(#SVGID_53_);}
	.st53{fill:url(#SVGID_54_);}
	.st54{fill:url(#SVGID_55_);}
	.st55{fill:url(#SVGID_56_);}
	.st56{fill:url(#SVGID_57_);}
	.st57{fill:url(#SVGID_58_);}
	.st58{fill:url(#SVGID_59_);}
	.st59{fill:url(#SVGID_60_);}
	.st60{fill:url(#SVGID_61_);}
	.st61{fill:url(#SVGID_62_);}
</style>
<g>
	<linearGradient id="SVGID_1_" gradientUnits="userSpaceOnUse" x1="14.9708" y1="43.1113" x2="41.1516" y2="10.8987">
		<stop  offset="0" style="stop-color:#B2782A"/>
		<stop  offset="5.761914e-02" style="stop-color:#B77F2E"/>
		<stop  offset="0.1404" style="stop-color:#C49239"/>
		<stop  offset="0.2379" style="stop-color:#DAB14C"/>
		<stop  offset="0.3333" style="stop-color:#F4D662"/>
		<stop  offset="0.7151" style="stop-color:#F4DE8B"/>
		<stop  offset="0.8603" style="stop-color:#F4D662"/>
		<stop  offset="1" style="stop-color:#B2782A"/>
	</linearGradient>
	<path class="st0" d="M26.1,4.8c0.7-0.7,2-0.7,2.7,0c0.7,0.7,2.1,0.8,3,0.4c0.9-0.5,2.1-0.2,2.6,0.7C35,6.7,36.3,7.2,37.3,7
		c1-0.2,2,0.4,2.4,1.3c0.3,0.9,1.4,1.7,2.4,1.8c1,0,1.9,0.9,2,1.9c0.1,1,1,2,1.9,2.3c1,0.3,1.6,1.3,1.5,2.3c-0.2,1,0.4,2.2,1.3,2.7
		c0.9,0.5,1.2,1.7,0.8,2.6c-0.4,0.9-0.1,2.2,0.6,2.9c0.7,0.7,0.8,1.9,0.2,2.7c-0.6,0.8-0.7,2.1-0.2,3c0.5,0.9,0.3,2.1-0.5,2.7
		c-0.8,0.6-1.2,1.9-0.9,2.9c0.3,1-0.2,2.1-1.2,2.5c-0.9,0.4-1.6,1.5-1.6,2.5c0,1-0.7,1.9-1.7,2.1c-1,0.2-2,1.1-2.2,2.1
		c-0.2,1-1.2,1.7-2.2,1.6c-1-0.1-2.2,0.6-2.6,1.4c-0.5,0.9-1.6,1.3-2.5,1c-0.9-0.3-2.2,0-2.9,0.7c-0.7,0.8-1.9,0.9-2.7,0.3
		c-0.8-0.6-2.2-0.6-3,0c-0.8,0.6-2,0.4-2.7-0.3c-0.7-0.7-2-1.1-2.9-0.7c-0.9,0.3-2.1-0.1-2.5-1c-0.5-0.9-1.6-1.5-2.6-1.4
		c-1,0.1-2-0.6-2.2-1.6c-0.2-1-1.2-1.9-2.2-2.1C9.9,43,9.1,42,9.1,41c0-1-0.7-2.1-1.6-2.5C6.6,38.1,6.1,37,6.3,36
		c0.3-1-0.1-2.2-0.9-2.9c-0.8-0.6-1-1.8-0.5-2.7c0.5-0.9,0.4-2.2-0.2-3c-0.6-0.8-0.5-2,0.2-2.7c0.7-0.7,1-2,0.6-2.9
		c-0.4-0.9,0-2.1,0.8-2.6c0.9-0.5,1.4-1.7,1.3-2.7c-0.2-1,0.5-2,1.5-2.3c1-0.3,1.8-1.3,1.9-2.3c0.1-1,1-1.8,2-1.9
		c1,0,2.1-0.8,2.4-1.8c0.3-0.9,1.4-1.5,2.4-1.3c1,0.2,2.2-0.3,2.8-1.1c0.6-0.8,1.7-1.1,2.6-0.7C24.1,5.7,25.4,5.5,26.1,4.8z"/>
	<circle cx="27.5" cy="27.5" r="20.7"/>
	<linearGradient id="SVGID_2_" gradientUnits="userSpaceOnUse" x1="17.3287" y1="40.3083" x2="39.0176" y2="12.9726">
		<stop  offset="0" style="stop-color:#B2782A"/>
		<stop  offset="5.761914e-02" style="stop-color:#B77F2E"/>
		<stop  offset="0.1404" style="stop-color:#C49239"/>
		<stop  offset="0.2379" style="stop-color:#DAB14C"/>
		<stop  offset="0.3333" style="stop-color:#F4D662"/>
		<stop  offset="0.7151" style="stop-color:#F4DE8B"/>
		<stop  offset="0.8603" style="stop-color:#F4D662"/>
		<stop  offset="1" style="stop-color:#B2782A"/>
	</linearGradient>
	<path class="st1" d="M46.7,27.5c0,10.6-8.6,19.2-19.2,19.2S8.3,38.1,8.3,27.5c0-10.6,8.6-19.2,19.2-19.2S46.7,16.9,46.7,27.5z"/>
	<linearGradient id="SVGID_3_" gradientUnits="userSpaceOnUse" x1="136.296" y1="-106.5738" x2="19.3536" y2="37.5271">
		<stop  offset="0" style="stop-color:#B2782A"/>
		<stop  offset="5.761914e-02" style="stop-color:#B77F2E"/>
		<stop  offset="0.1404" style="stop-color:#C49239"/>
		<stop  offset="0.2379" style="stop-color:#DAB14C"/>
		<stop  offset="0.3333" style="stop-color:#F4D662"/>
		<stop  offset="0.7151" style="stop-color:#F4DE8B"/>
		<stop  offset="0.8603" style="stop-color:#F4D662"/>
		<stop  offset="1" style="stop-color:#B2782A"/>
	</linearGradient>
	<path class="st2" d="M45.5,27.5c0,10-8.1,18-18,18c-10,0-18-8.1-18-18c0-10,8.1-18,18-18C37.5,9.5,45.5,17.5,45.5,27.5z"/>
	<polygon points="27.5,17.5 26.2,18.3 26.5,16.8 25.3,15.8 26.9,15.6 27.5,14.2 28.1,15.6 29.7,15.8 28.5,16.8 28.9,18.3 	"/>
	<g>
		<rect x="20.3" y="20" width="14.4" height="0.3"/>
	</g>
	<g>
		<rect x="20.3" y="36.7" width="14.4" height="0.3"/>
	</g>
	<g>
		<path d="M13.3,26.6c0.3,0,0.4-0.1,0.5-0.2c0.1-0.1,0.1-0.3,0.1-0.6v-3c0-0.2,0-0.4-0.1-0.5s-0.2-0.1-0.5-0.1v-0.1h1.8
			c0.6,0,1,0.1,1.4,0.3s0.5,0.5,0.5,0.9c0,0.5-0.2,0.8-0.5,1s-0.8,0.3-1.3,0.3c-0.1,0-0.2,0-0.3,0c-0.1,0-0.2,0-0.3,0v1.3
			c0,0.3,0,0.4,0.1,0.5c0.1,0.1,0.3,0.1,0.5,0.1v0.1h-2V26.6z M15.7,22.4c-0.2-0.1-0.4-0.1-0.8-0.1c-0.1,0-0.2,0-0.3,0
			c0,0,0,0.1,0,0.2v1.8c0.1,0,0.2,0,0.2,0s0.1,0,0.1,0c0.3,0,0.6,0,0.8-0.1c0.3-0.2,0.5-0.5,0.5-0.9C16.3,22.9,16.1,22.6,15.7,22.4z
			"/>
		<path d="M17.2,26.6c0.3,0,0.4-0.1,0.5-0.2c0.1-0.1,0.1-0.3,0.1-0.6v-3c0-0.2,0-0.4-0.1-0.5c-0.1-0.1-0.2-0.1-0.5-0.1v-0.1h1.9
			c0.4,0,0.7,0.1,1,0.2c0.5,0.2,0.8,0.5,0.8,1.1c0,0.3-0.1,0.6-0.3,0.8s-0.5,0.3-0.9,0.4l1.4,1.8c0.1,0.1,0.2,0.2,0.3,0.2
			c0.1,0,0.2,0.1,0.3,0.1v0.1h-1.1l-1.8-2.2l-0.3,0v1.4c0,0.3,0,0.4,0.1,0.5c0.1,0.1,0.2,0.1,0.5,0.1v0.1h-1.9V26.6z M19.6,24.1
			c0.4-0.2,0.6-0.4,0.6-0.9c0-0.4-0.2-0.7-0.5-0.8c-0.2-0.1-0.4-0.1-0.7-0.1c-0.2,0-0.3,0-0.4,0c0,0-0.1,0.1-0.1,0.2v1.7
			C19,24.3,19.4,24.2,19.6,24.1z"/>
		<path d="M21.9,26.7v-0.1c0.2,0,0.3-0.1,0.4-0.2c0.1-0.1,0.2-0.4,0.5-0.9l1.5-3.4h0.1l1.7,4c0.1,0.3,0.2,0.4,0.3,0.5
			c0.1,0.1,0.2,0.1,0.3,0.1v0.1H25v-0.1c0.2,0,0.3,0,0.4-0.1c0.1,0,0.1-0.1,0.1-0.2c0,0,0-0.1,0-0.2c0-0.1-0.1-0.2-0.1-0.3L25,25.2
			h-1.8c-0.2,0.5-0.3,0.7-0.3,0.8s-0.1,0.2-0.1,0.2c0,0.1,0,0.2,0.1,0.2c0.1,0,0.2,0,0.3,0.1v0.1H21.9z M24.9,24.9L24.1,23l-0.8,1.9
			H24.9z"/>
		<path d="M26.2,22.1h4l0,1.2H30c-0.1-0.4-0.2-0.6-0.3-0.7c-0.1-0.1-0.4-0.2-0.8-0.2h-0.4v3.6c0,0.3,0,0.4,0.1,0.5s0.3,0.1,0.6,0.1
			v0.1h-2v-0.1c0.3,0,0.5-0.1,0.6-0.1c0.1-0.1,0.1-0.3,0.1-0.6v-3.5h-0.4c-0.4,0-0.7,0.1-0.8,0.2c-0.1,0.1-0.2,0.4-0.3,0.7h-0.2
			L26.2,22.1z"/>
		<path d="M30.5,26.6c0.3,0,0.5-0.1,0.6-0.1c0.1-0.1,0.1-0.2,0.1-0.5v-3.1c0-0.3,0-0.4-0.1-0.5c-0.1-0.1-0.3-0.1-0.6-0.1v-0.1h2.1
			v0.1c-0.3,0-0.5,0.1-0.6,0.1c-0.1,0.1-0.1,0.2-0.1,0.5v3.1c0,0.3,0,0.4,0.1,0.5c0.1,0.1,0.3,0.1,0.6,0.1v0.1h-2.1V26.6z"/>
		<path d="M36,22.1c0.3,0.1,0.4,0.1,0.4,0.1c0.1,0,0.1,0,0.2-0.1s0.1-0.1,0.1-0.2H37l0.1,1.6h-0.2c-0.1-0.3-0.2-0.6-0.4-0.8
			c-0.3-0.4-0.7-0.5-1.2-0.5c-0.5,0-0.9,0.2-1.2,0.6c-0.3,0.4-0.5,0.9-0.5,1.6c0,0.6,0.2,1.1,0.5,1.5c0.3,0.4,0.7,0.6,1.2,0.6
			c0.4,0,0.7-0.1,1-0.3c0.2-0.1,0.4-0.2,0.6-0.4l0.1,0.1c-0.2,0.2-0.3,0.4-0.6,0.5c-0.4,0.3-0.8,0.4-1.3,0.4c-0.8,0-1.3-0.2-1.8-0.7
			c-0.4-0.4-0.6-1-0.6-1.7c0-0.7,0.2-1.3,0.6-1.7c0.5-0.5,1-0.7,1.8-0.7C35.5,22,35.8,22,36,22.1z"/>
		<path d="M37.4,26.6c0.3,0,0.4-0.1,0.5-0.1s0.1-0.2,0.1-0.5v-3.1c0-0.2,0-0.4-0.1-0.5c-0.1-0.1-0.2-0.1-0.5-0.1v-0.1h3.7l0,1H41
			c-0.1-0.3-0.1-0.5-0.3-0.6s-0.4-0.1-0.8-0.1h-1c-0.1,0-0.2,0-0.2,0c0,0,0,0.1,0,0.2v1.6h1.1c0.3,0,0.5,0,0.6-0.1
			c0.1-0.1,0.1-0.3,0.2-0.5h0.2v1.6h-0.2c-0.1-0.3-0.1-0.5-0.2-0.5c-0.1-0.1-0.3-0.1-0.6-0.1h-1.1v1.7c0,0.1,0,0.2,0.1,0.2
			s0.4,0,0.8,0c0.5,0,0.8-0.1,1.1-0.2c0.2-0.1,0.4-0.4,0.6-0.8h0.2l-0.3,1.2h-3.8V26.6z"/>
		<path d="M15,35.1V35c0.2,0,0.3-0.1,0.4-0.2c0.1-0.1,0.2-0.4,0.5-0.9l1.5-3.4h0.1l1.7,4c0.1,0.3,0.2,0.4,0.3,0.5
			c0.1,0.1,0.2,0.1,0.3,0.1v0.1H18V35c0.2,0,0.3,0,0.4-0.1c0.1,0,0.1-0.1,0.1-0.2c0,0,0-0.1,0-0.2c0-0.1-0.1-0.2-0.1-0.3l-0.3-0.7
			h-1.8c-0.2,0.5-0.3,0.7-0.3,0.8s-0.1,0.2-0.1,0.2c0,0.1,0,0.2,0.1,0.2c0.1,0,0.2,0,0.3,0.1v0.1H15z M18,33.3l-0.8-1.9l-0.8,1.9H18
			z"/>
		<path d="M21.1,30.5v0.1c-0.1,0-0.2,0-0.3,0c-0.1,0-0.2,0.1-0.2,0.2c0,0,0,0.1,0,0.1s0,0.1,0.1,0.2l1,2.6l0.7-2L22.2,31
			c-0.1-0.2-0.2-0.3-0.3-0.3c-0.1,0-0.2,0-0.3-0.1v-0.1h1.9v0.1c-0.2,0-0.3,0-0.4,0c-0.1,0-0.2,0.1-0.2,0.2c0,0,0,0.1,0,0.1
			c0,0,0,0.1,0.1,0.2l1,2.6l0.9-2.4c0-0.1,0.1-0.3,0.1-0.4c0-0.1,0-0.1,0-0.1c0-0.1-0.1-0.2-0.2-0.3c-0.1,0-0.2,0-0.3-0.1v-0.1h1.4
			v0.1c-0.1,0-0.2,0-0.3,0.1c-0.1,0.1-0.2,0.2-0.3,0.3l-0.7,2.1l-0.3,0.8l-0.4,1.3h-0.1l-0.3-0.8l-0.8-2.2l-1.1,3h-0.1L21,33.7
			l-0.6-1.6c-0.2-0.7-0.4-1.1-0.5-1.2s-0.2-0.2-0.5-0.2v-0.1H21.1z"/>
		<path d="M25.3,35.1V35c0.2,0,0.3-0.1,0.4-0.2c0.1-0.1,0.2-0.4,0.5-0.9l1.5-3.4h0.1l1.7,4c0.1,0.3,0.2,0.4,0.3,0.5
			c0.1,0.1,0.2,0.1,0.3,0.1v0.1h-1.8V35c0.2,0,0.3,0,0.4-0.1c0.1,0,0.1-0.1,0.1-0.2c0,0,0-0.1,0-0.2c0-0.1-0.1-0.2-0.1-0.3l-0.3-0.7
			h-1.8c-0.2,0.5-0.3,0.7-0.3,0.8s-0.1,0.2-0.1,0.2c0,0.1,0,0.2,0.1,0.2c0.1,0,0.2,0,0.3,0.1v0.1H25.3z M28.3,33.3l-0.8-1.9
			l-0.8,1.9H28.3z"/>
		<path d="M30.3,35c0.3,0,0.4-0.1,0.5-0.2c0.1-0.1,0.1-0.3,0.1-0.6v-3c0-0.2,0-0.4-0.1-0.5c-0.1-0.1-0.2-0.1-0.5-0.1v-0.1h1.9
			c0.4,0,0.7,0.1,1,0.2c0.5,0.2,0.8,0.5,0.8,1.1c0,0.3-0.1,0.6-0.3,0.8s-0.5,0.3-0.9,0.4l1.4,1.8c0.1,0.1,0.2,0.2,0.3,0.2
			c0.1,0,0.2,0.1,0.3,0.1v0.1h-1.1L32,32.9l-0.3,0v1.4c0,0.3,0,0.4,0.1,0.5c0.1,0.1,0.2,0.1,0.5,0.1v0.1h-1.9V35z M32.7,32.5
			c0.4-0.2,0.6-0.4,0.6-0.9c0-0.4-0.2-0.7-0.5-0.8c-0.2-0.1-0.4-0.1-0.7-0.1c-0.2,0-0.3,0-0.4,0c0,0-0.1,0.1-0.1,0.2v1.7
			C32.2,32.7,32.5,32.6,32.7,32.5z"/>
		<path d="M35,35c0.3,0,0.4-0.1,0.5-0.1c0.1-0.1,0.1-0.2,0.1-0.5v-3.1c0-0.3,0-0.4-0.1-0.5s-0.2-0.1-0.5-0.1v-0.1h1.9
			c0.6,0,1.2,0.1,1.6,0.3c0.8,0.4,1.2,1,1.2,2c0,0.3-0.1,0.7-0.2,1s-0.4,0.6-0.6,0.8c-0.2,0.1-0.4,0.2-0.6,0.3
			c-0.4,0.1-0.8,0.2-1.3,0.2H35V35z M36.5,34.8c0.1,0,0.2,0.1,0.3,0.1c0.5,0,1-0.1,1.4-0.3c0.5-0.3,0.8-0.9,0.8-1.7
			c0-0.7-0.2-1.3-0.7-1.6c-0.4-0.3-0.9-0.5-1.5-0.5c-0.2,0-0.3,0-0.3,0.1s-0.1,0.1-0.1,0.2v3.6C36.4,34.7,36.4,34.7,36.5,34.8z"/>
	</g>
</g>
</svg>
