<?xml version="1.0" encoding="utf-8"?>
<!-- Generator: Adobe Illustrator 25.1.0, SVG Export Plug-In . SVG Version: 6.00 Build 0)  -->
<svg version="1.1" id="Layer_1" xmlns="http://www.w3.org/2000/svg" xmlns:xlink="http://www.w3.org/1999/xlink" x="0px" y="0px"
	 viewBox="0 0 1000 1000" style="enable-background:new 0 0 1000 1000;" xml:space="preserve">
<style type="text/css">
	.st0{opacity:0.85;fill:#624A99;}
	.st1{opacity:0.85;fill:#4F99CE;}
	.st2{opacity:0.85;fill:#FF9D5A;}
</style>
<g>
	<g>
		<path class="st0" d="M967.81,666.24c-3.89-6.06-8.07-11.93-12.47-17.58c-58.69-75.27-140.63-109.2-226.1-143.79
			c-97.19-39.34-203.96-55.03-308.34-44.66C284.14,473.79,128.75,526.75,43.66,640.9C13.86,680.87-6.64,732.37,6.57,780.43
			C28.3,859.5,129.65,918,199.04,949.19c84.73,38.09,179.85,53.56,272.04,40.22c67.29-9.74,133.11-28.34,200.56-36.97
			c104.82-13.4,227.16-6.73,295.22-103.69c17.45-24.87,29.23-54.22,30.53-84.57C998.88,729.53,986.68,695.62,967.81,666.24z"/>
		<path class="st1" d="M597.5,202.6c143.59,24.56,280.83,84.61,235.39,223.22c-17.5,53.39-69.59,90.94-119.71,111.42
			c-82.97,33.89-167.62-45.6-256.47-38.32c-79,6.47-183.34,35.14-257.29,1.7c-71.96-32.53-155.79-136.43-99.02-216.19
			c50.29-70.66,173.17-92.33,253.17-96.34C402.51,185.63,501.42,186.17,597.5,202.6z"/>
		<path class="st2" d="M325.23,192.55c43.39,19.4,93.09,18.89,138.7,30.95c50.64,13.38,105.53,44.93,159.2,28.25
			c26.75-8.31,47.58-31.63,55.72-58.43c12.52-41.21-0.98-84.31-35.01-110.18c-24.46-18.59-54.23-28.54-83.4-38.18
			C492.82,22.62,413.88-4.35,341.72,9.8c-32.68,6.41-64.71,26.23-76.58,57.34c-16.45,43.13,6.85,95.43,45.5,117.95
			C315.41,187.87,320.28,190.34,325.23,192.55z"/>
	</g>
</g>
</svg>
